<svg xmlns="http://www.w3.org/2000/svg" width="770" height="61"><path d="M379,45L370,41L366,64Z" fill="#486bb7" stroke="#486bb7" stroke-width="1.51"/><path d="M366,64L376,71L379,45Z" fill="#4466b1" stroke="#4466b1" stroke-width="1.51"/><path d="M370,41L346,63L366,64Z" fill="#4668b4" stroke="#4668b4" stroke-width="1.51"/><path d="M366,64L365,93L376,71Z" fill="#4465b0" stroke="#4465b0" stroke-width="1.51"/><path d="M409,55L406,43L379,45Z" fill="#486bb8" stroke="#486bb8" stroke-width="1.51"/><path d="M365,93L385,83L376,71Z" fill="#4365b0" stroke="#4365b0" stroke-width="1.51"/><path d="M370,41L335,44L346,63Z" fill="#4a6cb9" stroke="#4a6cb9" stroke-width="1.51"/><path d="M409,55L379,45L376,71Z" fill="#4567b2" stroke="#4567b2" stroke-width="1.51"/><path d="M380,10L367,11L370,41Z" fill="#587bc9" stroke="#587bc9" stroke-width="1.51"/><path d="M385,83L409,55L376,71Z" fill="#4365af" stroke="#4365af" stroke-width="1.51"/><path d="M346,63L346,85L366,64Z" fill="#4466b1" stroke="#4466b1" stroke-width="1.51"/><path d="M322,84L346,85L346,63Z" fill="#4567b2" stroke="#4567b2" stroke-width="1.51"/><path d="M346,85L365,93L366,64Z" fill="#4466b1" stroke="#4466b1" stroke-width="1.51"/><path d="M370,41L340,20L335,44Z" fill="#5174c2" stroke="#5174c2" stroke-width="1.51"/><path d="M380,10L370,41L379,45Z" fill="#5174c3" stroke="#5174c3" stroke-width="1.51"/><path d="M410,22L380,10L379,45Z" fill="#5477c6" stroke="#5477c6" stroke-width="1.51"/><path d="M367,11L340,20L370,41Z" fill="#5779c8" stroke="#5779c8" stroke-width="1.51"/><path d="M335,44L325,49L346,63Z" fill="#4a6bb8" stroke="#4a6bb8" stroke-width="1.51"/><path d="M322,27L325,49L335,44Z" fill="#5072bf" stroke="#5072bf" stroke-width="1.51"/><path d="M406,43L410,22L379,45Z" fill="#4e71bf" stroke="#4e71bf" stroke-width="1.51"/><path d="M427,45L410,22L406,43Z" fill="#4d70be" stroke="#4d70be" stroke-width="1.51"/><path d="M413,86L421,64L409,55Z" fill="#4263ae" stroke="#4263ae" stroke-width="1.51"/><path d="M409,55L427,45L406,43Z" fill="#486bb7" stroke="#486bb7" stroke-width="1.51"/><path d="M385,83L413,86L409,55Z" fill="#4264af" stroke="#4264af" stroke-width="1.51"/><path d="M365,93L382,105L385,83Z" fill="#4365b0" stroke="#4365b0" stroke-width="1.51"/><path d="M355,108L382,105L365,93Z" fill="#4466b0" stroke="#4466b0" stroke-width="1.51"/><path d="M382,105L413,86L385,83Z" fill="#4264af" stroke="#4264af" stroke-width="1.51"/><path d="M340,20L322,27L335,44Z" fill="#5477c6" stroke="#5477c6" stroke-width="1.51"/><path d="M325,49L316,67L346,63Z" fill="#4668b3" stroke="#4668b3" stroke-width="1.51"/><path d="M298,65L316,67L325,49Z" fill="#4768b3" stroke="#4768b3" stroke-width="1.51"/><path d="M346,85L355,108L365,93Z" fill="#4466b1" stroke="#4466b1" stroke-width="1.51"/><path d="M334,108L355,108L346,85Z" fill="#4567b1" stroke="#4567b1" stroke-width="1.51"/><path d="M316,67L322,84L346,63Z" fill="#4667b2" stroke="#4667b2" stroke-width="1.51"/><path d="M421,64L427,45L409,55Z" fill="#4466b2" stroke="#4466b2" stroke-width="1.51"/><path d="M340,20L309,-6L322,27Z" fill="#5f81ce" stroke="#5f81ce" stroke-width="1.51"/><path d="M367,11L343,-6L340,20Z" fill="#6083d0" stroke="#6083d0" stroke-width="1.51"/><path d="M356,-14L343,-6L367,11Z" fill="#6588d4" stroke="#6588d4" stroke-width="1.51"/><path d="M383,-13L367,11L380,10Z" fill="#6385d2" stroke="#6385d2" stroke-width="1.51"/><path d="M322,84L334,108L346,85Z" fill="#4567b2" stroke="#4567b2" stroke-width="1.51"/><path d="M413,86L430,95L421,64Z" fill="#4163ae" stroke="#4163ae" stroke-width="1.51"/><path d="M421,64L455,55L427,45Z" fill="#4466b1" stroke="#4466b1" stroke-width="1.51"/><path d="M382,105L415,102L413,86Z" fill="#4264af" stroke="#4264af" stroke-width="1.51"/><path d="M439,112L415,102L382,105Z" fill="#4264ae" stroke="#4264ae" stroke-width="1.51"/><path d="M410,-4L383,-13L380,10Z" fill="#6486d2" stroke="#6486d2" stroke-width="1.51"/><path d="M383,-13L356,-14L367,11Z" fill="#6587d3" stroke="#6587d3" stroke-width="1.51"/><path d="M410,22L410,-4L380,10Z" fill="#5e80cd" stroke="#5e80cd" stroke-width="1.51"/><path d="M426,10L410,-4L410,22Z" fill="#5d7fcd" stroke="#5d7fcd" stroke-width="1.51"/><path d="M427,45L426,10L410,22Z" fill="#5376c4" stroke="#5376c4" stroke-width="1.51"/><path d="M316,67L298,65L322,84Z" fill="#4668b3" stroke="#4668b3" stroke-width="1.51"/><path d="M322,84L318,117L334,108Z" fill="#4667b2" stroke="#4667b2" stroke-width="1.51"/><path d="M288,43L298,65L325,49Z" fill="#4b6db8" stroke="#4b6db8" stroke-width="1.51"/><path d="M415,102L430,95L413,86Z" fill="#4163ae" stroke="#4163ae" stroke-width="1.51"/><path d="M452,16L431,-2L426,10Z" fill="#5d80cc" stroke="#5d80cc" stroke-width="1.51"/><path d="M383,-13L369,-23L356,-14Z" fill="#6587d3" stroke="#6587d3" stroke-width="1.51"/><path d="M334,-34L309,-6L343,-6Z" fill="#6789d5" stroke="#6789d5" stroke-width="1.51"/><path d="M380,-23L369,-23L383,-13Z" fill="#6487d3" stroke="#6487d3" stroke-width="1.51"/><path d="M410,-29L380,-23L383,-13Z" fill="#6486d2" stroke="#6486d2" stroke-width="1.51"/><path d="M410,-4L410,-29L383,-13Z" fill="#6386d2" stroke="#6386d2" stroke-width="1.51"/><path d="M426,10L431,-2L410,-4Z" fill="#6184d0" stroke="#6184d0" stroke-width="1.51"/><path d="M452,16L426,10L427,45Z" fill="#5477c5" stroke="#5477c5" stroke-width="1.51"/><path d="M334,108L318,117L355,108Z" fill="#4567b2" stroke="#4567b2" stroke-width="1.51"/><path d="M355,108L439,112L382,105Z" fill="#4264af" stroke="#4264af" stroke-width="1.51"/><path d="M301,120L318,117L322,84Z" fill="#4668b3" stroke="#4668b3" stroke-width="1.51"/><path d="M322,27L288,43L325,49Z" fill="#5073c1" stroke="#5073c1" stroke-width="1.51"/><path d="M298,65L283,92L322,84Z" fill="#4768b3" stroke="#4768b3" stroke-width="1.51"/><path d="M288,25L288,43L322,27Z" fill="#5578c6" stroke="#5578c6" stroke-width="1.51"/><path d="M343,-6L309,-6L340,20Z" fill="#6587d3" stroke="#6587d3" stroke-width="1.51"/><path d="M334,-34L343,-6L356,-14Z" fill="#6688d4" stroke="#6688d4" stroke-width="1.51"/><path d="M446,95L455,55L421,64Z" fill="#4162ad" stroke="#4162ad" stroke-width="1.51"/><path d="M455,55L455,36L427,45Z" fill="#476ab7" stroke="#476ab7" stroke-width="1.51"/><path d="M309,-6L288,25L322,27Z" fill="#5f81ce" stroke="#5f81ce" stroke-width="1.51"/><path d="M430,95L446,95L421,64Z" fill="#4163ad" stroke="#4163ad" stroke-width="1.51"/><path d="M439,112L446,95L430,95Z" fill="#4162ad" stroke="#4162ad" stroke-width="1.51"/><path d="M455,36L452,16L427,45Z" fill="#4e71c0" stroke="#4e71c0" stroke-width="1.51"/><path d="M415,102L439,112L430,95Z" fill="#4163ad" stroke="#4163ad" stroke-width="1.51"/><path d="M318,117L439,112L355,108Z" fill="#4365b0" stroke="#4365b0" stroke-width="1.51"/><path d="M431,-2L410,-29L410,-4Z" fill="#6385d1" stroke="#6385d1" stroke-width="1.51"/><path d="M380,-23L334,-34L369,-23Z" fill="#6587d4" stroke="#6587d4" stroke-width="1.51"/><path d="M434,-32L410,-29L431,-2Z" fill="#6285d1" stroke="#6285d1" stroke-width="1.51"/><path d="M369,-23L334,-34L356,-14Z" fill="#6588d4" stroke="#6588d4" stroke-width="1.51"/><path d="M410,-29L334,-34L380,-23Z" fill="#6487d3" stroke="#6487d3" stroke-width="1.51"/><path d="M309,-6L301,-11L288,25Z" fill="#6689d5" stroke="#6689d5" stroke-width="1.51"/><path d="M308,-25L301,-11L309,-6Z" fill="#688ad6" stroke="#688ad6" stroke-width="1.51"/><path d="M278,89L283,92L298,65Z" fill="#4869b4" stroke="#4869b4" stroke-width="1.51"/><path d="M278,89L298,65L271,60Z" fill="#4869b4" stroke="#4869b4" stroke-width="1.51"/><path d="M318,117L451,114L439,112Z" fill="#4264af" stroke="#4264af" stroke-width="1.51"/><path d="M283,92L301,120L322,84Z" fill="#4768b3" stroke="#4768b3" stroke-width="1.51"/><path d="M283,92L276,114L301,120Z" fill="#4869b4" stroke="#4869b4" stroke-width="1.51"/><path d="M271,60L298,65L288,43Z" fill="#4a6cb7" stroke="#4a6cb7" stroke-width="1.51"/><path d="M271,35L271,60L288,43Z" fill="#4f72bd" stroke="#4f72bd" stroke-width="1.51"/><path d="M271,35L288,43L288,25Z" fill="#5477c5" stroke="#5477c5" stroke-width="1.51"/><path d="M334,-34L308,-25L309,-6Z" fill="#6789d5" stroke="#6789d5" stroke-width="1.51"/><path d="M273,16L288,25L301,-11Z" fill="#6385d2" stroke="#6385d2" stroke-width="1.51"/><path d="M273,16L271,35L288,25Z" fill="#5a7dca" stroke="#5a7dca" stroke-width="1.51"/><path d="M439,112L451,114L446,95Z" fill="#4062ad" stroke="#4062ad" stroke-width="1.51"/><path d="M484,85L482,61L455,55Z" fill="#3f61ab" stroke="#3f61ab" stroke-width="1.51"/><path d="M301,120L451,114L318,117Z" fill="#4466b1" stroke="#4466b1" stroke-width="1.51"/><path d="M270,-9L273,16L301,-11Z" fill="#698bd7" stroke="#698bd7" stroke-width="1.51"/><path d="M461,-23L434,-32L431,-2Z" fill="#6284d0" stroke="#6284d0" stroke-width="1.51"/><path d="M410,-29L434,-32L334,-34Z" fill="#6386d2" stroke="#6386d2" stroke-width="1.51"/><path d="M308,-25L298,-28L301,-11Z" fill="#688ad6" stroke="#688ad6" stroke-width="1.51"/><path d="M334,-34L298,-28L308,-25Z" fill="#6789d6" stroke="#6789d6" stroke-width="1.51"/><path d="M476,19L455,36L482,36Z" fill="#4e71bf" stroke="#4e71bf" stroke-width="1.51"/><path d="M476,19L452,16L455,36Z" fill="#5376c3" stroke="#5376c3" stroke-width="1.51"/><path d="M468,-9L462,-9L452,16Z" fill="#6183cf" stroke="#6183cf" stroke-width="1.51"/><path d="M452,16L462,-9L431,-2Z" fill="#6083ce" stroke="#6083ce" stroke-width="1.51"/><path d="M482,36L455,36L455,55Z" fill="#486bb8" stroke="#486bb8" stroke-width="1.51"/><path d="M484,85L455,55L446,95Z" fill="#4061ac" stroke="#4061ac" stroke-width="1.51"/><path d="M278,89L276,114L283,92Z" fill="#4869b4" stroke="#4869b4" stroke-width="1.51"/><path d="M255,92L276,114L278,89Z" fill="#486ab4" stroke="#486ab4" stroke-width="1.51"/><path d="M482,61L482,36L455,55Z" fill="#4467b2" stroke="#4467b2" stroke-width="1.51"/><path d="M451,114L472,103L446,95Z" fill="#4062ac" stroke="#4062ac" stroke-width="1.51"/><path d="M462,-9L461,-23L431,-2Z" fill="#6183cf" stroke="#6183cf" stroke-width="1.51"/><path d="M476,19L468,-9L452,16Z" fill="#5c7eca" stroke="#5c7eca" stroke-width="1.51"/><path d="M479,-22L468,-9L491,-6Z" fill="#6082ce" stroke="#6082ce" stroke-width="1.51"/><path d="M273,16L247,15L271,35Z" fill="#5d7fcc" stroke="#5d7fcc" stroke-width="1.51"/><path d="M242,74L255,92L271,60Z" fill="#496bb5" stroke="#496bb5" stroke-width="1.51"/><path d="M274,-20L270,-9L301,-11Z" fill="#698bd7" stroke="#698bd7" stroke-width="1.51"/><path d="M472,103L484,85L446,95Z" fill="#4061ab" stroke="#4061ab" stroke-width="1.51"/><path d="M482,61L492,64L482,36Z" fill="#4264af" stroke="#4264af" stroke-width="1.51"/><path d="M468,-9L461,-23L462,-9Z" fill="#6183cf" stroke="#6183cf" stroke-width="1.51"/><path d="M298,-28L274,-20L301,-11Z" fill="#688ad6" stroke="#688ad6" stroke-width="1.51"/><path d="M242,74L271,60L240,41Z" fill="#4b6cb6" stroke="#4b6cb6" stroke-width="1.51"/><path d="M271,60L255,92L278,89Z" fill="#496ab4" stroke="#496ab4" stroke-width="1.51"/><path d="M484,85L492,64L482,61Z" fill="#3f60aa" stroke="#3f60aa" stroke-width="1.51"/><path d="M491,-6L468,-9L476,19Z" fill="#5f81cd" stroke="#5f81cd" stroke-width="1.51"/><path d="M270,-9L247,15L273,16Z" fill="#6587d4" stroke="#6587d4" stroke-width="1.51"/><path d="M241,-10L247,15L270,-9Z" fill="#6a8cd8" stroke="#6a8cd8" stroke-width="1.51"/><path d="M240,41L271,60L271,35Z" fill="#5072bf" stroke="#5072bf" stroke-width="1.51"/><path d="M247,15L240,41L271,35Z" fill="#587bc9" stroke="#587bc9" stroke-width="1.51"/><path d="M468,-9L479,-22L461,-23Z" fill="#6183ce" stroke="#6183ce" stroke-width="1.51"/><path d="M461,-23L505,-29L434,-32Z" fill="#6183ce" stroke="#6183ce" stroke-width="1.51"/><path d="M500,24L476,19L482,36Z" fill="#5073c0" stroke="#5073c0" stroke-width="1.51"/><path d="M509,48L500,24L482,36Z" fill="#4a6dba" stroke="#4a6dba" stroke-width="1.51"/><path d="M500,24L491,-6L476,19Z" fill="#587bc7" stroke="#587bc7" stroke-width="1.51"/><path d="M255,92L244,102L276,114Z" fill="#496ab5" stroke="#496ab5" stroke-width="1.51"/><path d="M228,89L244,102L255,92Z" fill="#4a6bb5" stroke="#4a6bb5" stroke-width="1.51"/><path d="M484,85L507,80L492,64Z" fill="#3f60aa" stroke="#3f60aa" stroke-width="1.51"/><path d="M492,64L509,48L482,36Z" fill="#4466b1" stroke="#4466b1" stroke-width="1.51"/><path d="M472,103L497,103L484,85Z" fill="#3f61ab" stroke="#3f61ab" stroke-width="1.51"/><path d="M451,114L497,103L472,103Z" fill="#3f61ab" stroke="#3f61ab" stroke-width="1.51"/><path d="M507,80L509,48L492,64Z" fill="#3e60aa" stroke="#3e60aa" stroke-width="1.51"/><path d="M500,24L514,-8L491,-6Z" fill="#5d7fcb" stroke="#5d7fcb" stroke-width="1.51"/><path d="M497,103L507,80L484,85Z" fill="#3f60aa" stroke="#3f60aa" stroke-width="1.51"/><path d="M242,74L228,89L255,92Z" fill="#4a6bb5" stroke="#4a6bb5" stroke-width="1.51"/><path d="M240,41L231,64L242,74Z" fill="#4a6cb6" stroke="#4a6cb6" stroke-width="1.51"/><path d="M225,39L231,64L240,41Z" fill="#5072be" stroke="#5072be" stroke-width="1.51"/><path d="M274,-20L241,-10L270,-9Z" fill="#6a8cd8" stroke="#6a8cd8" stroke-width="1.51"/><path d="M247,15L232,11L240,41Z" fill="#5d80cd" stroke="#5d80cd" stroke-width="1.51"/><path d="M237,-31L241,-10L274,-20Z" fill="#6a8cd8" stroke="#6a8cd8" stroke-width="1.51"/><path d="M241,-10L232,11L247,15Z" fill="#688ad6" stroke="#688ad6" stroke-width="1.51"/><path d="M232,11L225,39L240,41Z" fill="#597cca" stroke="#597cca" stroke-width="1.51"/><path d="M509,48L513,23L500,24Z" fill="#4c6fbc" stroke="#4c6fbc" stroke-width="1.51"/><path d="M491,-6L505,-29L479,-22Z" fill="#6082cd" stroke="#6082cd" stroke-width="1.51"/><path d="M530,35L513,23L509,48Z" fill="#496dba" stroke="#496dba" stroke-width="1.51"/><path d="M231,64L228,89L242,74Z" fill="#4a6cb6" stroke="#4a6cb6" stroke-width="1.51"/><path d="M201,85L228,89L231,64Z" fill="#4b6cb6" stroke="#4b6cb6" stroke-width="1.51"/><path d="M507,80L523,56L509,48Z" fill="#3e5fa9" stroke="#3e5fa9" stroke-width="1.51"/><path d="M497,103L514,88L507,80Z" fill="#3e60a9" stroke="#3e60a9" stroke-width="1.51"/><path d="M514,88L523,56L507,80Z" fill="#3e5fa9" stroke="#3e5fa9" stroke-width="1.51"/><path d="M244,102L233,121L276,114Z" fill="#496bb5" stroke="#496bb5" stroke-width="1.51"/><path d="M276,114L233,121L301,120Z" fill="#486ab4" stroke="#486ab4" stroke-width="1.51"/><path d="M228,89L233,121L244,102Z" fill="#4a6bb6" stroke="#4a6bb6" stroke-width="1.51"/><path d="M513,23L514,-8L500,24Z" fill="#5879c6" stroke="#5879c6" stroke-width="1.51"/><path d="M546,22L514,-8L513,23Z" fill="#5779c5" stroke="#5779c5" stroke-width="1.51"/><path d="M241,-10L226,-12L232,11Z" fill="#6b8dd9" stroke="#6b8dd9" stroke-width="1.51"/><path d="M232,11L207,36L225,39Z" fill="#5a7dcb" stroke="#5a7dcb" stroke-width="1.51"/><path d="M231,-37L237,-31L274,-20Z" fill="#6b8cd8" stroke="#6b8cd8" stroke-width="1.51"/><path d="M231,-37L274,-20L298,-28Z" fill="#6a8bd7" stroke="#6a8bd7" stroke-width="1.51"/><path d="M479,-22L505,-29L461,-23Z" fill="#6082ce" stroke="#6082ce" stroke-width="1.51"/><path d="M514,-8L505,-29L491,-6Z" fill="#5f81cd" stroke="#5f81cd" stroke-width="1.51"/><path d="M237,-31L226,-12L241,-10Z" fill="#6b8dd9" stroke="#6b8dd9" stroke-width="1.51"/><path d="M523,56L530,35L509,48Z" fill="#4567b2" stroke="#4567b2" stroke-width="1.51"/><path d="M538,48L530,35L523,56Z" fill="#4466b2" stroke="#4466b2" stroke-width="1.51"/><path d="M225,39L202,62L231,64Z" fill="#4e6fba" stroke="#4e6fba" stroke-width="1.51"/><path d="M228,89L199,101L233,121Z" fill="#4b6cb6" stroke="#4b6cb6" stroke-width="1.51"/><path d="M197,23L207,36L232,11Z" fill="#5e81ce" stroke="#5e81ce" stroke-width="1.51"/><path d="M226,-12L197,23L232,11Z" fill="#6789d6" stroke="#6789d6" stroke-width="1.51"/><path d="M237,-31L231,-37L226,-12Z" fill="#6b8dd9" stroke="#6b8dd9" stroke-width="1.51"/><path d="M334,-34L231,-37L298,-28Z" fill="#698bd7" stroke="#698bd7" stroke-width="1.51"/><path d="M524,-33L231,-37L334,-34Z" fill="#6587d4" stroke="#6587d4" stroke-width="1.51"/><path d="M554,-12L524,-33L514,-8Z" fill="#5e80cb" stroke="#5e80cb" stroke-width="1.51"/><path d="M552,68L538,48L523,56Z" fill="#3f60aa" stroke="#3f60aa" stroke-width="1.51"/><path d="M207,36L202,62L225,39Z" fill="#5375c0" stroke="#5375c0" stroke-width="1.51"/><path d="M514,88L552,68L523,56Z" fill="#3d5fa8" stroke="#3d5fa8" stroke-width="1.51"/><path d="M497,103L530,113L514,88Z" fill="#3e5fa9" stroke="#3e5fa9" stroke-width="1.51"/><path d="M451,114L530,113L497,103Z" fill="#3f60aa" stroke="#3f60aa" stroke-width="1.51"/><path d="M597,118L530,113L451,114Z" fill="#3d5fa8" stroke="#3d5fa8" stroke-width="1.51"/><path d="M202,62L201,85L231,64Z" fill="#4b6db6" stroke="#4b6db6" stroke-width="1.51"/><path d="M207,36L185,50L202,62Z" fill="#5173be" stroke="#5173be" stroke-width="1.51"/><path d="M202,62L176,64L201,85Z" fill="#4c6db7" stroke="#4c6db7" stroke-width="1.51"/><path d="M190,-8L197,23L226,-12Z" fill="#6c8ed9" stroke="#6c8ed9" stroke-width="1.51"/><path d="M434,-32L524,-33L334,-34Z" fill="#6284d0" stroke="#6284d0" stroke-width="1.51"/><path d="M505,-29L524,-33L434,-32Z" fill="#6082cd" stroke="#6082cd" stroke-width="1.51"/><path d="M514,-8L524,-33L505,-29Z" fill="#5f81cc" stroke="#5f81cc" stroke-width="1.51"/><path d="M546,22L513,23L530,35Z" fill="#4e71be" stroke="#4e71be" stroke-width="1.51"/><path d="M530,113L546,93L514,88Z" fill="#3d5fa8" stroke="#3d5fa8" stroke-width="1.51"/><path d="M170,93L199,101L201,85Z" fill="#4c6db7" stroke="#4c6db7" stroke-width="1.51"/><path d="M201,85L199,101L228,89Z" fill="#4b6db7" stroke="#4b6db7" stroke-width="1.51"/><path d="M538,48L546,22L530,35Z" fill="#496cb9" stroke="#496cb9" stroke-width="1.51"/><path d="M563,38L546,22L538,48Z" fill="#486bb8" stroke="#486bb8" stroke-width="1.51"/><path d="M537,112L546,93L530,113Z" fill="#3d5ea8" stroke="#3d5ea8" stroke-width="1.51"/><path d="M546,93L552,68L514,88Z" fill="#3d5ea8" stroke="#3d5ea8" stroke-width="1.51"/><path d="M197,23L185,50L207,36Z" fill="#577ac7" stroke="#577ac7" stroke-width="1.51"/><path d="M190,-30L190,-8L226,-12Z" fill="#6d8eda" stroke="#6d8eda" stroke-width="1.51"/><path d="M197,23L168,25L185,50Z" fill="#5a7dca" stroke="#5a7dca" stroke-width="1.51"/><path d="M190,-8L185,4L197,23Z" fill="#6a8bd7" stroke="#6a8bd7" stroke-width="1.51"/><path d="M552,68L563,38L538,48Z" fill="#4163ad" stroke="#4163ad" stroke-width="1.51"/><path d="M546,22L554,-12L514,-8Z" fill="#5e7fca" stroke="#5e7fca" stroke-width="1.51"/><path d="M569,64L563,38L552,68Z" fill="#3e5fa9" stroke="#3e5fa9" stroke-width="1.51"/><path d="M152,44L176,64L185,50Z" fill="#5173be" stroke="#5173be" stroke-width="1.51"/><path d="M185,50L176,64L202,62Z" fill="#4d6fb9" stroke="#4d6fb9" stroke-width="1.51"/><path d="M563,13L554,-12L546,22Z" fill="#597bc6" stroke="#597bc6" stroke-width="1.51"/><path d="M563,38L563,13L546,22Z" fill="#4f71be" stroke="#4f71be" stroke-width="1.51"/><path d="M576,-33L550,-28L554,-12Z" fill="#5d7fca" stroke="#5d7fca" stroke-width="1.51"/><path d="M554,-12L550,-28L524,-33Z" fill="#5e80ca" stroke="#5e80ca" stroke-width="1.51"/><path d="M190,-8L162,-9L185,4Z" fill="#6e90db" stroke="#6e90db" stroke-width="1.51"/><path d="M185,4L168,25L197,23Z" fill="#6385d2" stroke="#6385d2" stroke-width="1.51"/><path d="M231,-37L190,-30L226,-12Z" fill="#6c8ed9" stroke="#6c8ed9" stroke-width="1.51"/><path d="M596,22L567,-4L563,13Z" fill="#5778c4" stroke="#5778c4" stroke-width="1.51"/><path d="M579,84L569,64L552,68Z" fill="#3c5da6" stroke="#3c5da6" stroke-width="1.51"/><path d="M579,84L552,68L546,93Z" fill="#3c5da7" stroke="#3c5da7" stroke-width="1.51"/><path d="M537,112L566,104L546,93Z" fill="#3d5ea7" stroke="#3d5ea7" stroke-width="1.51"/><path d="M162,-9L168,25L185,4Z" fill="#6a8cd8" stroke="#6a8cd8" stroke-width="1.51"/><path d="M176,64L170,93L201,85Z" fill="#4d6db8" stroke="#4d6db8" stroke-width="1.51"/><path d="M199,101L175,116L233,121Z" fill="#4c6db7" stroke="#4c6db7" stroke-width="1.51"/><path d="M151,94L170,93L145,72Z" fill="#4e6fb9" stroke="#4e6fb9" stroke-width="1.51"/><path d="M563,13L567,-4L554,-12Z" fill="#5d7fc9" stroke="#5d7fc9" stroke-width="1.51"/><path d="M596,22L563,13L563,38Z" fill="#4e70bd" stroke="#4e70bd" stroke-width="1.51"/><path d="M170,93L175,116L199,101Z" fill="#4d6db8" stroke="#4d6db8" stroke-width="1.51"/><path d="M566,104L579,84L546,93Z" fill="#3c5da6" stroke="#3c5da6" stroke-width="1.51"/><path d="M569,64L587,44L563,38Z" fill="#4263ae" stroke="#4263ae" stroke-width="1.51"/><path d="M190,-30L171,-27L190,-8Z" fill="#6e8fdb" stroke="#6e8fdb" stroke-width="1.51"/><path d="M126,-31L171,-27L190,-30Z" fill="#6f90db" stroke="#6f90db" stroke-width="1.51"/><path d="M598,75L587,44L569,64Z" fill="#3b5ca5" stroke="#3b5ca5" stroke-width="1.51"/><path d="M168,25L152,44L185,50Z" fill="#5779c6" stroke="#5779c6" stroke-width="1.51"/><path d="M171,-27L162,-9L190,-8Z" fill="#6e90db" stroke="#6e90db" stroke-width="1.51"/><path d="M147,19L152,44L168,25Z" fill="#5d80cd" stroke="#5d80cd" stroke-width="1.51"/><path d="M170,93L158,106L175,116Z" fill="#4d6eb8" stroke="#4d6eb8" stroke-width="1.51"/><path d="M151,94L158,106L170,93Z" fill="#4e6eb8" stroke="#4e6eb8" stroke-width="1.51"/><path d="M145,72L170,93L176,64Z" fill="#4e6eb8" stroke="#4e6eb8" stroke-width="1.51"/><path d="M567,-4L576,-33L554,-12Z" fill="#5d7fc9" stroke="#5d7fc9" stroke-width="1.51"/><path d="M550,-28L576,-33L524,-33Z" fill="#5e7fca" stroke="#5e7fca" stroke-width="1.51"/><path d="M524,-33L671,-35L231,-37Z" fill="#6082ce" stroke="#6082ce" stroke-width="1.51"/><path d="M593,-12L576,-33L567,-4Z" fill="#5c7ec9" stroke="#5c7ec9" stroke-width="1.51"/><path d="M152,44L145,72L176,64Z" fill="#4e6fb9" stroke="#4e6fb9" stroke-width="1.51"/><path d="M162,-9L147,19L168,25Z" fill="#6889d6" stroke="#6889d6" stroke-width="1.51"/><path d="M133,16L147,19L130,4Z" fill="#688ad6" stroke="#688ad6" stroke-width="1.51"/><path d="M121,60L145,72L152,44Z" fill="#5070bb" stroke="#5070bb" stroke-width="1.51"/><path d="M613,51L596,22L587,44Z" fill="#4567b3" stroke="#4567b3" stroke-width="1.51"/><path d="M587,44L596,22L563,38Z" fill="#486ab6" stroke="#486ab6" stroke-width="1.51"/><path d="M579,84L598,75L569,64Z" fill="#3b5ca5" stroke="#3b5ca5" stroke-width="1.51"/><path d="M566,104L594,98L579,84Z" fill="#3b5da6" stroke="#3b5da6" stroke-width="1.51"/><path d="M597,118L594,98L566,104Z" fill="#3b5ca5" stroke="#3b5ca5" stroke-width="1.51"/><path d="M594,98L598,75L579,84Z" fill="#3b5ca5" stroke="#3b5ca5" stroke-width="1.51"/><path d="M147,19L140,33L152,44Z" fill="#5c7ecc" stroke="#5c7ecc" stroke-width="1.51"/><path d="M596,22L593,-12L567,-4Z" fill="#5b7dc7" stroke="#5b7dc7" stroke-width="1.51"/><path d="M171,-27L148,-23L162,-9Z" fill="#6f90db" stroke="#6f90db" stroke-width="1.51"/><path d="M147,19L133,16L140,33Z" fill="#6284d1" stroke="#6284d1" stroke-width="1.51"/><path d="M624,70L613,51L598,75Z" fill="#3a5ba4" stroke="#3a5ba4" stroke-width="1.51"/><path d="M537,112L597,118L566,104Z" fill="#3c5da6" stroke="#3c5da6" stroke-width="1.51"/><path d="M530,113L597,118L537,112Z" fill="#3c5ea7" stroke="#3c5ea7" stroke-width="1.51"/><path d="M607,119L597,118L451,114Z" fill="#3c5ea7" stroke="#3c5ea7" stroke-width="1.51"/><path d="M607,119L451,114L301,120Z" fill="#4062ac" stroke="#4062ac" stroke-width="1.51"/><path d="M130,4L147,19L162,-9Z" fill="#6c8eda" stroke="#6c8eda" stroke-width="1.51"/><path d="M121,60L131,92L145,72Z" fill="#4f70ba" stroke="#4f70ba" stroke-width="1.51"/><path d="M145,72L131,92L151,94Z" fill="#4f6fb9" stroke="#4f6fb9" stroke-width="1.51"/><path d="M151,94L128,119L158,106Z" fill="#4e6fb9" stroke="#4e6fb9" stroke-width="1.51"/><path d="M158,106L128,119L175,116Z" fill="#4e6fb9" stroke="#4e6fb9" stroke-width="1.51"/><path d="M121,60L152,44L140,33Z" fill="#5678c3" stroke="#5678c3" stroke-width="1.51"/><path d="M598,75L613,51L587,44Z" fill="#3d5ea8" stroke="#3d5ea8" stroke-width="1.51"/><path d="M624,-6L602,-24L593,-12Z" fill="#5b7cc7" stroke="#5b7cc7" stroke-width="1.51"/><path d="M624,70L598,75L624,90Z" fill="#3a5ba4" stroke="#3a5ba4" stroke-width="1.51"/><path d="M614,13L593,-12L596,22Z" fill="#5779c3" stroke="#5779c3" stroke-width="1.51"/><path d="M593,-12L602,-24L576,-33Z" fill="#5c7dc8" stroke="#5c7dc8" stroke-width="1.51"/><path d="M108,41L121,60L140,33Z" fill="#5779c4" stroke="#5779c4" stroke-width="1.51"/><path d="M148,-23L130,4L162,-9Z" fill="#6f91dc" stroke="#6f91dc" stroke-width="1.51"/><path d="M597,118L607,119L594,98Z" fill="#3b5ca5" stroke="#3b5ca5" stroke-width="1.51"/><path d="M233,121L607,119L301,120Z" fill="#4365b0" stroke="#4365b0" stroke-width="1.51"/><path d="M613,51L614,13L596,22Z" fill="#4a6cb9" stroke="#4a6cb9" stroke-width="1.51"/><path d="M116,16L140,33L133,16Z" fill="#6385d2" stroke="#6385d2" stroke-width="1.51"/><path d="M101,98L128,119L131,92Z" fill="#5070ba" stroke="#5070ba" stroke-width="1.51"/><path d="M131,92L128,119L151,94Z" fill="#4f6fb9" stroke="#4f6fb9" stroke-width="1.51"/><path d="M175,116L128,119L233,121Z" fill="#4d6eb8" stroke="#4d6eb8" stroke-width="1.51"/><path d="M613,51L633,42L614,13Z" fill="#4568b4" stroke="#4568b4" stroke-width="1.51"/><path d="M624,90L598,75L594,98Z" fill="#3a5ba4" stroke="#3a5ba4" stroke-width="1.51"/><path d="M607,119L624,90L594,98Z" fill="#3a5ba4" stroke="#3a5ba4" stroke-width="1.51"/><path d="M130,4L116,16L133,16Z" fill="#698bd7" stroke="#698bd7" stroke-width="1.51"/><path d="M103,-7L116,16L130,4Z" fill="#6e90db" stroke="#6e90db" stroke-width="1.51"/><path d="M148,-23L126,-31L130,4Z" fill="#7092dc" stroke="#7092dc" stroke-width="1.51"/><path d="M171,-27L126,-31L148,-23Z" fill="#6f91dc" stroke="#6f91dc" stroke-width="1.51"/><path d="M231,-37L126,-31L190,-30Z" fill="#6e8fdb" stroke="#6e8fdb" stroke-width="1.51"/><path d="M624,-6L617,-27L602,-24Z" fill="#5b7cc7" stroke="#5b7cc7" stroke-width="1.51"/><path d="M602,-24L617,-27L576,-33Z" fill="#5c7dc8" stroke="#5c7dc8" stroke-width="1.51"/><path d="M624,-6L593,-12L614,13Z" fill="#5b7cc7" stroke="#5b7cc7" stroke-width="1.51"/><path d="M637,25L624,-6L614,13Z" fill="#5476c1" stroke="#5476c1" stroke-width="1.51"/><path d="M121,60L109,74L131,92Z" fill="#5070ba" stroke="#5070ba" stroke-width="1.51"/><path d="M108,41L109,74L121,60Z" fill="#5172bc" stroke="#5172bc" stroke-width="1.51"/><path d="M116,16L108,41L140,33Z" fill="#5f81ce" stroke="#5f81ce" stroke-width="1.51"/><path d="M84,19L108,41L116,16Z" fill="#6284d1" stroke="#6284d1" stroke-width="1.51"/><path d="M634,66L633,42L613,51Z" fill="#3d5fa8" stroke="#3d5fa8" stroke-width="1.51"/><path d="M634,66L613,51L624,70Z" fill="#3a5ba3" stroke="#3a5ba3" stroke-width="1.51"/><path d="M646,80L634,66L624,70Z" fill="#395aa3" stroke="#395aa3" stroke-width="1.51"/><path d="M624,90L646,80L624,70Z" fill="#395aa3" stroke="#395aa3" stroke-width="1.51"/><path d="M607,119L630,101L624,90Z" fill="#3a5ba3" stroke="#3a5ba3" stroke-width="1.51"/><path d="M666,24L637,25L669,38Z" fill="#486ab6" stroke="#486ab6" stroke-width="1.51"/><path d="M633,42L637,25L614,13Z" fill="#4b6db9" stroke="#4b6db9" stroke-width="1.51"/><path d="M624,-6L632,-33L617,-27Z" fill="#5b7cc6" stroke="#5b7cc6" stroke-width="1.51"/><path d="M126,-31L112,-28L130,4Z" fill="#7092dd" stroke="#7092dd" stroke-width="1.51"/><path d="M109,74L101,98L131,92Z" fill="#5070ba" stroke="#5070ba" stroke-width="1.51"/><path d="M93,102L101,98L91,91Z" fill="#5171bb" stroke="#5171bb" stroke-width="1.51"/><path d="M101,98L109,74L91,91Z" fill="#5171bb" stroke="#5171bb" stroke-width="1.51"/><path d="M112,-28L103,-7L130,4Z" fill="#7192dd" stroke="#7192dd" stroke-width="1.51"/><path d="M641,-6L632,-33L624,-6Z" fill="#5a7bc6" stroke="#5a7bc6" stroke-width="1.51"/><path d="M617,-27L632,-33L576,-33Z" fill="#5b7cc7" stroke="#5b7cc7" stroke-width="1.51"/><path d="M576,-33L671,-35L524,-33Z" fill="#5c7dc8" stroke="#5c7dc8" stroke-width="1.51"/><path d="M101,98L101,113L128,119Z" fill="#5071ba" stroke="#5071ba" stroke-width="1.51"/><path d="M666,24L641,-6L637,25Z" fill="#5173be" stroke="#5173be" stroke-width="1.51"/><path d="M637,25L641,-6L624,-6Z" fill="#5879c4" stroke="#5879c4" stroke-width="1.51"/><path d="M634,66L664,65L633,42Z" fill="#3b5ba4" stroke="#3b5ba4" stroke-width="1.51"/><path d="M630,101L646,80L624,90Z" fill="#395aa3" stroke="#395aa3" stroke-width="1.51"/><path d="M101,98L93,102L101,113Z" fill="#5171bb" stroke="#5171bb" stroke-width="1.51"/><path d="M91,91L109,74L76,59Z" fill="#5171bb" stroke="#5171bb" stroke-width="1.51"/><path d="M76,59L109,74L108,41Z" fill="#5273bd" stroke="#5273bd" stroke-width="1.51"/><path d="M103,-7L84,19L116,16Z" fill="#6c8eda" stroke="#6c8eda" stroke-width="1.51"/><path d="M76,-11L84,19L103,-7Z" fill="#7294de" stroke="#7294de" stroke-width="1.51"/><path d="M84,19L79,37L108,41Z" fill="#5f81ce" stroke="#5f81ce" stroke-width="1.51"/><path d="M91,91L68,109L93,102Z" fill="#5172bb" stroke="#5172bb" stroke-width="1.51"/><path d="M84,19L62,14L79,37Z" fill="#6587d3" stroke="#6587d3" stroke-width="1.51"/><path d="M112,-28L88,-22L103,-7Z" fill="#7293de" stroke="#7293de" stroke-width="1.51"/><path d="M630,101L660,94L646,80Z" fill="#395aa2" stroke="#395aa2" stroke-width="1.51"/><path d="M646,80L664,65L634,66Z" fill="#395aa2" stroke="#395aa2" stroke-width="1.51"/><path d="M664,116L660,94L630,101Z" fill="#395aa2" stroke="#395aa2" stroke-width="1.51"/><path d="M660,94L664,65L646,80Z" fill="#3959a2" stroke="#3959a2" stroke-width="1.51"/><path d="M79,37L76,59L108,41Z" fill="#597ac5" stroke="#597ac5" stroke-width="1.51"/><path d="M669,38L637,25L633,42Z" fill="#4567b3" stroke="#4567b3" stroke-width="1.51"/><path d="M641,-6L671,-35L632,-33Z" fill="#5a7bc5" stroke="#5a7bc5" stroke-width="1.51"/><path d="M664,65L669,38L633,42Z" fill="#3f60aa" stroke="#3f60aa" stroke-width="1.51"/><path d="M679,45L669,38L664,65Z" fill="#3d5fa8" stroke="#3d5fa8" stroke-width="1.51"/><path d="M660,94L675,66L664,65Z" fill="#3859a1" stroke="#3859a1" stroke-width="1.51"/><path d="M607,119L664,116L630,101Z" fill="#395aa3" stroke="#395aa3" stroke-width="1.51"/><path d="M79,37L56,43L76,59Z" fill="#597ac5" stroke="#597ac5" stroke-width="1.51"/><path d="M88,-22L76,-11L103,-7Z" fill="#7294de" stroke="#7294de" stroke-width="1.51"/><path d="M681,-8L669,2L690,25Z" fill="#5576c0" stroke="#5576c0" stroke-width="1.51"/><path d="M666,24L669,2L641,-6Z" fill="#5577c1" stroke="#5577c1" stroke-width="1.51"/><path d="M669,38L690,25L666,24Z" fill="#476ab5" stroke="#476ab5" stroke-width="1.51"/><path d="M684,92L675,66L660,94Z" fill="#3859a1" stroke="#3859a1" stroke-width="1.51"/><path d="M54,83L68,109L91,91Z" fill="#5272bc" stroke="#5272bc" stroke-width="1.51"/><path d="M93,102L68,109L101,113Z" fill="#5172bb" stroke="#5172bb" stroke-width="1.51"/><path d="M101,113L9,116L128,119Z" fill="#5272bc" stroke="#5272bc" stroke-width="1.51"/><path d="M54,83L91,91L76,59Z" fill="#5272bc" stroke="#5272bc" stroke-width="1.51"/><path d="M675,66L679,45L664,65Z" fill="#395aa2" stroke="#395aa2" stroke-width="1.51"/><path d="M76,-11L62,14L84,19Z" fill="#6e90dc" stroke="#6e90dc" stroke-width="1.51"/><path d="M669,2L671,-35L641,-6Z" fill="#597ac4" stroke="#597ac4" stroke-width="1.51"/><path d="M632,-33L671,-35L576,-33Z" fill="#5b7cc6" stroke="#5b7cc6" stroke-width="1.51"/><path d="M681,-8L671,-35L669,2Z" fill="#597ac4" stroke="#597ac4" stroke-width="1.51"/><path d="M664,116L680,105L660,94Z" fill="#3859a1" stroke="#3859a1" stroke-width="1.51"/><path d="M675,66L708,44L679,45Z" fill="#3c5da6" stroke="#3c5da6" stroke-width="1.51"/><path d="M62,14L56,43L79,37Z" fill="#6083d0" stroke="#6083d0" stroke-width="1.51"/><path d="M690,25L669,2L666,24Z" fill="#4f70bb" stroke="#4f70bb" stroke-width="1.51"/><path d="M680,105L684,92L660,94Z" fill="#3859a1" stroke="#3859a1" stroke-width="1.51"/><path d="M690,25L669,38L679,45Z" fill="#4465b1" stroke="#4465b1" stroke-width="1.51"/><path d="M51,63L54,83L76,59Z" fill="#5273bc" stroke="#5273bc" stroke-width="1.51"/><path d="M43,51L51,63L56,43Z" fill="#5778c2" stroke="#5778c2" stroke-width="1.51"/><path d="M56,43L51,63L76,59Z" fill="#5576c0" stroke="#5576c0" stroke-width="1.51"/><path d="M62,14L44,19L56,43Z" fill="#6487d3" stroke="#6487d3" stroke-width="1.51"/><path d="M76,-11L53,4L62,14Z" fill="#7293de" stroke="#7293de" stroke-width="1.51"/><path d="M52,-37L53,4L76,-11Z" fill="#7395df" stroke="#7395df" stroke-width="1.51"/><path d="M708,44L690,25L679,45Z" fill="#4264af" stroke="#4264af" stroke-width="1.51"/><path d="M44,19L43,51L56,43Z" fill="#5e80cc" stroke="#5e80cc" stroke-width="1.51"/><path d="M40,87L44,105L54,83Z" fill="#5474bd" stroke="#5474bd" stroke-width="1.51"/><path d="M53,4L44,19L62,14Z" fill="#6c8eda" stroke="#6c8eda" stroke-width="1.51"/><path d="M40,87L54,83L51,63Z" fill="#5374bd" stroke="#5374bd" stroke-width="1.51"/><path d="M54,83L44,105L68,109Z" fill="#5373bd" stroke="#5373bd" stroke-width="1.51"/><path d="M231,-37L52,-37L126,-31Z" fill="#7091dc" stroke="#7091dc" stroke-width="1.51"/><path d="M126,-31L52,-37L112,-28Z" fill="#7293de" stroke="#7293de" stroke-width="1.51"/><path d="M112,-28L52,-37L88,-22Z" fill="#7294de" stroke="#7294de" stroke-width="1.51"/><path d="M88,-22L52,-37L76,-11Z" fill="#7394df" stroke="#7394df" stroke-width="1.51"/><path d="M53,4L31,2L44,19Z" fill="#6f91dc" stroke="#6f91dc" stroke-width="1.51"/><path d="M32,66L51,63L43,51Z" fill="#5474be" stroke="#5474be" stroke-width="1.51"/><path d="M32,66L40,87L51,63Z" fill="#5374bd" stroke="#5374bd" stroke-width="1.51"/><path d="M684,92L702,81L675,66Z" fill="#3758a0" stroke="#3758a0" stroke-width="1.51"/><path d="M707,107L702,81L684,92Z" fill="#37589f" stroke="#37589f" stroke-width="1.51"/><path d="M681,-8L694,-30L671,-35Z" fill="#5979c3" stroke="#5979c3" stroke-width="1.51"/><path d="M712,-3L694,-30L681,-8Z" fill="#5879c3" stroke="#5879c3" stroke-width="1.51"/><path d="M702,11L681,-8L690,25Z" fill="#5374be" stroke="#5374be" stroke-width="1.51"/><path d="M708,44L702,11L690,25Z" fill="#486ab5" stroke="#486ab5" stroke-width="1.51"/><path d="M702,81L708,44L675,66Z" fill="#3758a0" stroke="#3758a0" stroke-width="1.51"/><path d="M40,87L8,89L44,105Z" fill="#5474bd" stroke="#5474bd" stroke-width="1.51"/><path d="M23,58L32,66L43,51Z" fill="#5576bf" stroke="#5576bf" stroke-width="1.51"/><path d="M23,58L43,51L10,51Z" fill="#5879c3" stroke="#5879c3" stroke-width="1.51"/><path d="M680,105L707,107L684,92Z" fill="#3758a0" stroke="#3758a0" stroke-width="1.51"/><path d="M702,81L717,68L708,44Z" fill="#37579f" stroke="#37579f" stroke-width="1.51"/><path d="M664,116L707,107L680,105Z" fill="#3858a0" stroke="#3858a0" stroke-width="1.51"/><path d="M52,-37L31,2L53,4Z" fill="#7496e0" stroke="#7496e0" stroke-width="1.51"/><path d="M725,11L702,11L708,44Z" fill="#4a6cb7" stroke="#4a6cb7" stroke-width="1.51"/><path d="M725,11L712,-3L702,11Z" fill="#5475bf" stroke="#5475bf" stroke-width="1.51"/><path d="M702,11L712,-3L681,-8Z" fill="#5879c2" stroke="#5879c2" stroke-width="1.51"/><path d="M32,66L8,89L40,87Z" fill="#5575bd" stroke="#5575bd" stroke-width="1.51"/><path d="M10,51L43,51L44,19Z" fill="#5e7fcb" stroke="#5e7fcb" stroke-width="1.51"/><path d="M731,82L717,68L702,81Z" fill="#36579e" stroke="#36579e" stroke-width="1.51"/><path d="M31,2L12,12L44,19Z" fill="#6e90db" stroke="#6e90db" stroke-width="1.51"/><path d="M52,-37L33,-37L31,2Z" fill="#7496e0" stroke="#7496e0" stroke-width="1.51"/><path d="M15,-30L20,1L31,2Z" fill="#7597e1" stroke="#7597e1" stroke-width="1.51"/><path d="M712,-3L715,-32L694,-30Z" fill="#5878c2" stroke="#5878c2" stroke-width="1.51"/><path d="M694,-30L715,-32L671,-35Z" fill="#5879c3" stroke="#5879c3" stroke-width="1.51"/><path d="M724,-2L715,-32L712,-3Z" fill="#5778c1" stroke="#5778c1" stroke-width="1.51"/><path d="M741,45L725,11L708,44Z" fill="#4365b0" stroke="#4365b0" stroke-width="1.51"/><path d="M725,11L724,-2L712,-3Z" fill="#5677c0" stroke="#5677c0" stroke-width="1.51"/><path d="M12,12L10,51L44,19Z" fill="#6587d3" stroke="#6587d3" stroke-width="1.51"/><path d="M23,58L8,89L32,66Z" fill="#5575bd" stroke="#5575bd" stroke-width="1.51"/><path d="M20,1L12,12L31,2Z" fill="#7294de" stroke="#7294de" stroke-width="1.51"/><path d="M-4,-3L12,12L20,1Z" fill="#7495e0" stroke="#7495e0" stroke-width="1.51"/><path d="M744,-22L735,-31L724,-2Z" fill="#5777c1" stroke="#5777c1" stroke-width="1.51"/><path d="M717,68L731,67L708,44Z" fill="#37579f" stroke="#37579f" stroke-width="1.51"/><path d="M731,82L731,67L717,68Z" fill="#36579e" stroke="#36579e" stroke-width="1.51"/><path d="M707,107L731,82L702,81Z" fill="#36579f" stroke="#36579f" stroke-width="1.51"/><path d="M-10,96L8,89L-14,69Z" fill="#5676be" stroke="#5676be" stroke-width="1.51"/><path d="M10,51L8,89L23,58Z" fill="#5575be" stroke="#5575be" stroke-width="1.51"/><path d="M33,-37L15,-30L31,2Z" fill="#7597e1" stroke="#7597e1" stroke-width="1.51"/><path d="M8,89L9,116L44,105Z" fill="#5575bd" stroke="#5575bd" stroke-width="1.51"/><path d="M44,105L9,116L68,109Z" fill="#5374bd" stroke="#5374bd" stroke-width="1.51"/><path d="M68,109L9,116L101,113Z" fill="#5273bc" stroke="#5273bc" stroke-width="1.51"/><path d="M707,107L732,113L731,82Z" fill="#36579e" stroke="#36579e" stroke-width="1.51"/><path d="M750,39L741,45L754,68Z" fill="#3a5ba3" stroke="#3a5ba3" stroke-width="1.51"/><path d="M664,116L732,113L707,107Z" fill="#37589f" stroke="#37589f" stroke-width="1.51"/><path d="M763,116L732,113L664,116Z" fill="#36579e" stroke="#36579e" stroke-width="1.51"/><path d="M741,45L731,67L754,68Z" fill="#35569e" stroke="#35569e" stroke-width="1.51"/><path d="M731,67L741,45L708,44Z" fill="#3a5ba4" stroke="#3a5ba4" stroke-width="1.51"/><path d="M724,-2L735,-31L715,-32Z" fill="#5778c1" stroke="#5778c1" stroke-width="1.51"/><path d="M744,-22L724,-2L757,0Z" fill="#5777c0" stroke="#5777c0" stroke-width="1.51"/><path d="M715,-32L791,-35L671,-35Z" fill="#5778c1" stroke="#5778c1" stroke-width="1.51"/><path d="M-2,-23L-4,-3L20,1Z" fill="#7698e2" stroke="#7698e2" stroke-width="1.51"/><path d="M12,12L-17,35L10,51Z" fill="#6385d1" stroke="#6385d1" stroke-width="1.51"/><path d="M8,89L-10,107L9,116Z" fill="#5676be" stroke="#5676be" stroke-width="1.51"/><path d="M-4,-3L-6,10L12,12Z" fill="#7394df" stroke="#7394df" stroke-width="1.51"/><path d="M-25,18L-17,35L-6,10Z" fill="#6a8cd7" stroke="#6a8cd7" stroke-width="1.51"/><path d="M15,-30L-2,-23L20,1Z" fill="#7697e1" stroke="#7697e1" stroke-width="1.51"/><path d="M741,45L750,39L725,11Z" fill="#4366b0" stroke="#4366b0" stroke-width="1.51"/><path d="M754,68L731,67L731,82Z" fill="#35569d" stroke="#35569d" stroke-width="1.51"/><path d="M757,0L724,-2L725,11Z" fill="#5575bf" stroke="#5575bf" stroke-width="1.51"/><path d="M-14,69L8,89L10,51Z" fill="#5676be" stroke="#5676be" stroke-width="1.51"/><path d="M-10,96L-10,107L8,89Z" fill="#5676be" stroke="#5676be" stroke-width="1.51"/><path d="M761,12L757,0L725,11Z" fill="#5272bc" stroke="#5272bc" stroke-width="1.51"/><path d="M754,92L754,68L731,82Z" fill="#35569d" stroke="#35569d" stroke-width="1.51"/><path d="M-10,96L-33,109L-10,107Z" fill="#5676be" stroke="#5676be" stroke-width="1.51"/><path d="M-17,35L-14,69L10,51Z" fill="#5a7bc5" stroke="#5a7bc5" stroke-width="1.51"/><path d="M-17,35L12,12L-6,10Z" fill="#6b8dd8" stroke="#6b8dd8" stroke-width="1.51"/><path d="M732,113L754,92L731,82Z" fill="#35569d" stroke="#35569d" stroke-width="1.51"/><path d="M-25,18L-6,10L-28,2Z" fill="#7092dd" stroke="#7092dd" stroke-width="1.51"/><path d="M761,12L750,39L774,43Z" fill="#4365b0" stroke="#4365b0" stroke-width="1.51"/><path d="M761,12L725,11L750,39Z" fill="#4a6bb6" stroke="#4a6bb6" stroke-width="1.51"/><path d="M772,63L750,39L754,68Z" fill="#36579f" stroke="#36579f" stroke-width="1.51"/><path d="M-28,2L-6,10L-4,-3Z" fill="#7496e0" stroke="#7496e0" stroke-width="1.51"/><path d="M-17,35L-35,50L-14,69Z" fill="#5a7bc5" stroke="#5a7bc5" stroke-width="1.51"/><path d="M-38,96L-33,109L-10,96Z" fill="#5676be" stroke="#5676be" stroke-width="1.51"/><path d="M732,113L763,116L754,92Z" fill="#35569d" stroke="#35569d" stroke-width="1.51"/><path d="M783,86L772,63L754,68Z" fill="#34559c" stroke="#34559c" stroke-width="1.51"/><path d="M607,119L763,116L664,116Z" fill="#3858a0" stroke="#3858a0" stroke-width="1.51"/><path d="M763,116L768,105L754,92Z" fill="#35559c" stroke="#35559c" stroke-width="1.51"/><path d="M-2,-23L-28,2L-4,-3Z" fill="#7698e2" stroke="#7698e2" stroke-width="1.51"/><path d="M-25,18L-35,50L-17,35Z" fill="#6284d0" stroke="#6284d0" stroke-width="1.51"/><path d="M783,86L754,68L754,92Z" fill="#34559c" stroke="#34559c" stroke-width="1.51"/><path d="M795,61L774,43L772,63Z" fill="#37579f" stroke="#37579f" stroke-width="1.51"/><path d="M772,63L774,43L750,39Z" fill="#3a5ba4" stroke="#3a5ba4" stroke-width="1.51"/><path d="M761,12L776,-5L757,0Z" fill="#5474be" stroke="#5474be" stroke-width="1.51"/><path d="M-28,2L-35,50L-25,18Z" fill="#688ad6" stroke="#688ad6" stroke-width="1.51"/><path d="M-38,96L-10,96L-14,69Z" fill="#5676be" stroke="#5676be" stroke-width="1.51"/><path d="M-10,107L-33,109L9,116Z" fill="#5676be" stroke="#5676be" stroke-width="1.51"/><path d="M-35,50L-38,72L-14,69Z" fill="#5676be" stroke="#5676be" stroke-width="1.51"/><path d="M757,0L775,-32L744,-22Z" fill="#5676bf" stroke="#5676bf" stroke-width="1.51"/><path d="M744,-22L775,-32L735,-31Z" fill="#5677bf" stroke="#5677bf" stroke-width="1.51"/><path d="M785,14L776,-5L761,12Z" fill="#5172bb" stroke="#5172bb" stroke-width="1.51"/><path d="M-38,72L-38,96L-14,69Z" fill="#5676be" stroke="#5676be" stroke-width="1.51"/><path d="M776,-5L775,-32L757,0Z" fill="#5676be" stroke="#5676be" stroke-width="1.51"/><path d="M735,-31L791,-35L715,-32Z" fill="#5677bf" stroke="#5677bf" stroke-width="1.51"/><path d="M774,43L785,14L761,12Z" fill="#4769b3" stroke="#4769b3" stroke-width="1.51"/><path d="M776,-5L794,-13L775,-32Z" fill="#5676be" stroke="#5676be" stroke-width="1.51"/><path d="M768,105L783,86L754,92Z" fill="#34559c" stroke="#34559c" stroke-width="1.51"/><path d="M798,84L783,86L809,106Z" fill="#34559c" stroke="#34559c" stroke-width="1.51"/><path d="M797,39L785,14L774,43Z" fill="#4264af" stroke="#4264af" stroke-width="1.51"/><path d="M-35,50L-41,-37L-38,72Z" fill="#6587d4" stroke="#6587d4" stroke-width="1.51"/><path d="M-38,72L-41,-37L-38,96Z" fill="#5e7fca" stroke="#5e7fca" stroke-width="1.51"/><path d="M-28,2L-41,-37L-35,50Z" fill="#7395df" stroke="#7395df" stroke-width="1.51"/><path d="M-2,-23L-41,-37L-28,2Z" fill="#7698e2" stroke="#7698e2" stroke-width="1.51"/><path d="M15,-30L-41,-37L-2,-23Z" fill="#7698e2" stroke="#7698e2" stroke-width="1.51"/><path d="M33,-37L-41,-37L15,-30Z" fill="#7698e2" stroke="#7698e2" stroke-width="1.51"/><path d="M783,86L795,61L772,63Z" fill="#34559c" stroke="#34559c" stroke-width="1.51"/><path d="M795,61L797,39L774,43Z" fill="#3b5ca4" stroke="#3b5ca4" stroke-width="1.51"/><path d="M785,14L794,-13L776,-5Z" fill="#5676be" stroke="#5676be" stroke-width="1.51"/><path d="M801,10L794,-13L785,14Z" fill="#5474bd" stroke="#5474bd" stroke-width="1.51"/><path d="M809,106L783,86L768,105Z" fill="#34559c" stroke="#34559c" stroke-width="1.51"/><path d="M783,86L798,84L795,61Z" fill="#34559c" stroke="#34559c" stroke-width="1.51"/><path d="M795,61L809,106L797,39Z" fill="#34559c" stroke="#34559c" stroke-width="1.51"/><path d="M794,-13L791,-35L775,-32Z" fill="#5676be" stroke="#5676be" stroke-width="1.51"/><path d="M775,-32L791,-35L735,-31Z" fill="#5676be" stroke="#5676be" stroke-width="1.51"/><path d="M671,-35L791,-35L231,-37Z" fill="#5d7fc9" stroke="#5d7fc9" stroke-width="1.51"/><path d="M809,106L801,10L797,39Z" fill="#395aa2" stroke="#395aa2" stroke-width="1.51"/><path d="M797,39L801,10L785,14Z" fill="#496ab4" stroke="#496ab4" stroke-width="1.51"/><path d="M794,-13L801,10L791,-35Z" fill="#5676be" stroke="#5676be" stroke-width="1.51"/><path d="M798,84L809,106L795,61Z" fill="#34559c" stroke="#34559c" stroke-width="1.51"/><path d="M763,116L809,106L768,105Z" fill="#34559c" stroke="#34559c" stroke-width="1.51"/></svg>