<?xml version="1.0" encoding="UTF-8" standalone="no"?>
<!-- Created with Inkscape (http://www.inkscape.org/) -->

<svg
   xmlns:dc="http://purl.org/dc/elements/1.1/"
   xmlns:cc="http://creativecommons.org/ns#"
   xmlns:rdf="http://www.w3.org/1999/02/22-rdf-syntax-ns#"
   xmlns:svg="http://www.w3.org/2000/svg"
   xmlns="http://www.w3.org/2000/svg"
   xmlns:sodipodi="http://sodipodi.sourceforge.net/DTD/sodipodi-0.dtd"
   xmlns:inkscape="http://www.inkscape.org/namespaces/inkscape"
   version="1.1"
   width="744.09448"
   height="1052.3622"
   id="svg3786"
   sodipodi:docname="human.svg"
   inkscape:version="0.92.4 (unknown)">
  <metadata
     id="metadata8">
    <rdf:RDF>
      <cc:Work
         rdf:about="">
        <dc:format>image/svg+xml</dc:format>
        <dc:type
           rdf:resource="http://purl.org/dc/dcmitype/StillImage" />
      </cc:Work>
    </rdf:RDF>
  </metadata>
  <sodipodi:namedview
     pagecolor="#ffffff"
     bordercolor="#666666"
     borderopacity="1"
     objecttolerance="10"
     gridtolerance="10"
     guidetolerance="10"
     inkscape:pageopacity="0"
     inkscape:pageshadow="2"
     inkscape:window-width="1680"
     inkscape:window-height="992"
     id="namedview6"
     showgrid="false"
     inkscape:zoom="2.5371828"
     inkscape:cx="577.56651"
     inkscape:cy="957.04188"
     inkscape:window-x="1366"
     inkscape:window-y="0"
     inkscape:window-maximized="1"
     inkscape:current-layer="svg3786" />
  <defs
     id="defs3788" />
  <g
     id="layer3"
     transform="matrix(1.1112166,0,0,1.1112166,-49.672165,-30.691082)">
    <path
       d="m 332.47071,162.01403 c 0,0 3.75089,-3.25429 6.25148,-15.18665 2.5006,-11.93235 1.25029,-27.11899 1.25029,-27.11899 0,0 -12.50295,-8.67808 -12.50295,-16.2714 0,-7.593325 -2.5006,-37.966599 5.00118,-47.729434 7.50177,-9.762837 24.85719,-26.034237 48.76155,-26.034237 8.75208,0 42.51006,7.593322 46.26096,21.695197 3.75089,14.101875 10.00236,30.373279 7.50178,39.051356 -2.5006,8.678077 0,21.695198 -3.75089,28.203758 -3.75089,6.50856 -12.50297,11.93236 -11.25267,21.6952 1.2503,9.76284 -3.75089,13.01712 -8.75207,15.18663 -5.00119,2.16953 -10.00237,1.08477 -10.00237,1.08477 0,0 -1.25029,17.35616 5.00118,19.52567 6.25148,2.16953 52.51245,5.42381 57.51363,9.76285 5.00119,4.33904 23.75562,1.08476 30.00711,8.67808 6.25148,7.59331 17.50414,-1.08477 23.75561,45.5599 6.25149,46.64468 1.25031,47.72945 1.25031,47.72945 0,0 13.75326,17.35616 18.75444,30.37328 5.00119,13.01711 12.50296,45.5599 12.50296,45.5599 0,0 22.50534,22.77997 31.2574,40.13614 8.75208,17.35615 17.50415,56.40751 17.50415,56.40751 0,0 13.75326,18.44091 25.00592,31.45803 11.25266,13.01712 20.17697,25.18041 31.2574,36.88184 3.13192,3.30745 11.54154,5.13014 9.92801,9.3898 -1.32064,3.48643 -7.50751,1.02461 -11.1783,0.37303 -6.64064,-1.17874 -18.75445,-7.59331 -18.75445,-7.59331 0,0 -2.50058,31.45803 -1.25029,45.55991 1.25029,14.10188 -2.50058,20.61044 -7.50177,4.33904 -5.00118,-16.2714 -6.25149,-29.28851 -6.25149,-29.28851 v 32.5428 c 0,0 -3.75088,18.44091 -7.50177,10.84759 -3.75089,-7.59331 -7.50178,-43.39039 -7.50178,-43.39039 l -2.50059,37.96659 c 0,0 -2.5006,7.59332 -6.25148,0 -3.75089,-7.59331 -1.2503,-35.79707 -1.2503,-35.79707 l -6.25148,20.61043 c 0,0 1.2503,16.2714 -2.5006,7.59333 -3.75088,-8.67809 3.07644,-28.55711 4.35513,-45.65169 1.04366,-13.9525 8.14784,-20.51867 0.64606,-28.11199 -7.50177,-7.59332 -1.25029,-7.59332 -30.00711,-39.05136 -28.7568,-31.45803 -41.25977,-50.98371 -45.01066,-77.01795 -3.75089,-26.03424 -3.75089,-27.11899 -3.75089,-27.11899 0,0 -23.75562,-44.47516 -32.50769,-62.91608 -8.75208,-18.44092 -8.75208,-19.52569 -8.75208,-19.52569 0,0 7.50178,-9.76283 1.25029,34.71232 -6.25147,44.47516 -10.00236,39.05137 -7.50177,54.238 2.50059,15.18664 12.50296,62.91608 12.50296,62.91608 l 5.00118,57.49227 c 0,0 -1.25029,29.28852 -3.75088,84.61127 -2.50059,55.32276 -27.50652,118.23883 -27.50652,118.23883 0,0 2.50059,5.4238 -1.25029,27.119 -3.75089,21.6952 -8.75207,47.72944 -8.75207,47.72944 0,0 0,53.15324 -5.00119,61.83132 -5.00118,8.67807 -28.75681,36.88183 -31.2574,69.42462 -2.5006,32.5428 -3.75089,32.5428 1.25029,35.79709 5.00119,3.25428 11.25267,11.93236 15.00356,13.01711 3.75089,1.08477 10.00237,1.08477 10.00237,1.08477 0,0 15.00355,6.50856 12.50295,10.84759 -2.50058,4.33904 -6.25148,9.76285 -18.75443,10.8476 -12.50297,1.08475 -21.25504,1.08475 -32.50771,-6.50856 -11.25266,-7.59331 -26.25621,-2.16952 -25.00592,-9.76284 1.2503,-7.59331 0,-27.119 0,-27.119 0,0 0,-2.1695 -1.25029,-9.76283 -1.13219,-6.87605 11.25266,-86.78079 11.25266,-86.78079 0,0 -11.25266,2.16952 1.25029,-30.37329 12.50297,-32.54279 16.25386,-41.22087 16.25386,-41.22087 0,0 -13.75326,-22.77996 -8.75207,-47.72944 5.00118,-24.94948 -5.00119,-33.62755 0,-50.98372 5.00118,-17.35615 7.54175,-56.45659 5.00118,-84.61126 -0.63159,-6.99932 -3.98058,-13.64576 -5.00118,-20.61044 -2.31519,-15.79907 -2.5006,-47.72944 -2.5006,-47.72944 h -5.00119 c 0,0 -5.00118,28.20376 -13.75326,48.81419 -8.75206,20.61044 -12.50295,24.94948 -12.50295,24.94948 0,0 0,57.49228 -13.75326,88.95032 -13.75326,31.45804 -17.50414,29.28852 -17.50414,29.28852 0,0 2.50059,26.03424 -10.00238,41.22086 -12.50296,15.18665 -13.75325,16.2714 -13.75325,16.2714 0,0 2.50059,44.47517 -2.5006,58.57705 -5.00118,14.10188 -6.25148,13.01711 -6.25148,13.01711 0,0 -3.75089,11.93236 -10.00236,16.27141 -6.25148,4.33904 -38.75919,43.39039 -38.75919,72.67891 0,29.28852 1.2503,29.28852 1.2503,29.28852 0,0 1.25029,8.67808 -8.75208,9.76284 -10.00237,1.08475 -32.50769,0 -32.50769,0 0,0 -12.50297,10.84759 -22.50534,10.84759 -10.00237,0 -28.75681,1.08477 -28.75681,1.08477 0,0 -22.50533,-2.16953 -13.75325,-11.93236 8.75206,-9.76284 11.25266,-1.08476 40.00948,-17.35616 28.75681,-16.2714 32.50769,-15.18665 33.75799,-26.03424 1.2503,-10.8476 10.00237,-91.11984 13.75325,-105.22172 3.75089,-14.10187 17.50415,-41.22087 17.50415,-41.22087 0,0 -2.5006,-7.59332 2.50059,-13.01712 5.00118,-5.4238 5.00118,-41.22088 11.25267,-53.15324 6.25148,-11.93236 6.25148,-81.35699 6.25148,-81.35699 0,0 5.00119,-74.84844 13.75326,-101.96743 8.75208,-27.119 11.25266,-15.18664 12.50296,-40.13612 1.2503,-24.94948 13.75326,-50.98372 13.75326,-50.98372 0,0 -10.00237,-7.5933 -6.25148,-19.52567 3.75089,-11.93236 8.75207,-16.2714 3.75089,-30.37328 -5.00118,-14.10189 -21.25504,-53.15323 -21.25504,-53.15323 l -5.00119,-17.35617 c 0,0 -2.50058,15.18665 -16.25384,43.3904 -13.75326,28.20376 -13.75326,29.28852 -13.75326,29.28852 0,0 -1.2503,16.2714 -6.25148,19.52568 -5.00119,3.25428 -13.75326,33.62756 -41.25977,55.32275 -27.50652,21.69521 -43.76037,32.54279 -43.76037,32.54279 0,0 -2.50059,0 1.2503,8.67809 3.75089,8.67808 15.00355,24.94948 15.00355,33.62755 0,8.67808 2.50059,20.61044 -6.25148,10.84761 -8.75207,-9.76284 -15.00355,-24.94948 -15.00355,-24.94948 l -10.00237,5.4238 -7.50178,16.2714 c 0,0 0,13.01711 11.25266,10.8476 11.25267,-2.16953 22.50534,-2.16953 15.00355,1.08476 -7.50177,3.25428 3.75089,6.50856 3.75089,6.50856 l 1.2503,6.50855 -17.50414,3.25429 -13.75326,-6.50857 3.75089,11.93236 c 0,0 5.00118,17.35617 -2.5006,7.59332 -7.50177,-9.76284 -13.75325,-26.03423 -13.75325,-26.03423 0,0 0,-9.76285 -2.5006,-19.52568 -2.50059,-9.76284 -7.50178,-8.67808 -5.00118,-15.18664 2.50059,-6.50856 18.75444,-40.13612 21.25503,-45.55991 2.5006,-5.42381 23.75563,-18.44093 28.75681,-32.54281 5.00119,-14.10187 18.75445,-54.23799 27.50652,-62.91607 8.75208,-8.67808 20.00474,-13.01713 20.00474,-13.01713 0,0 -5.00118,-6.50854 8.75208,-39.05134 13.75325,-32.54279 15.00355,-32.54279 15.00355,-32.54279 0,0 -7.50178,-22.77997 -2.5006,-35.79709 5.00119,-13.01712 8.75208,-17.35616 8.75208,-17.35616 0,0 -1.25029,-36.88184 16.25385,-44.47515 17.50415,-7.59332 68.76628,-11.93236 76.26807,-21.69519 7.50177,-9.76286 5.00118,-10.84761 5.00118,-10.84761 z"
       id="path3806"
       style="fill:#000000;fill-opacity:1;stroke:#030000;stroke-width:3.573946;stroke-linecap:butt;stroke-linejoin:miter;stroke-miterlimit:4;stroke-dasharray:none;stroke-opacity:1"
       inkscape:connector-curvature="0" />
  </g>
</svg>
