<?xml version="1.0" encoding="UTF-8" standalone="no"?>
<!-- Created with Inkscape (http://www.inkscape.org/) -->

<svg
   xmlns:svg="http://www.w3.org/2000/svg"
   xmlns="http://www.w3.org/2000/svg"
   version="1.2"
   width="474.78299"
   height="479.85001"
   viewBox="0 0 474.783 479.85"
   id="Layer_1"
   xml:space="preserve"
   style="overflow:inherit"><defs
   id="defs7" />
<path
   d="m 63.95,280 h 0.025 v -0.025 L 63.95,280 z M 320.575,43.35 v 0.025 C 319.88,41.4 318.887,39.458 317.6,37.55 c -1.319,-1.916 -2.869,-3.749 -4.65,-5.5 -1.784,-1.758 -3.751,-3.416 -5.899,-4.975 -2.159,-1.59 -4.435,-3.016 -6.825,-4.275 -1.816,-0.958 -3.634,-1.799 -5.45,-2.525 l -1.899,-0.75 c -0.367,-0.133 -0.717,-0.267 -1.051,-0.4 h 0.025 l -1.35,-0.4 h -0.025 c -1.05,-0.357 -2.1,-0.649 -3.15,-0.875 l -1.85,-0.45 c -2.474,-0.531 -4.849,-0.797 -7.125,-0.8 -3.983,10e-4 -7.95,0.285 -11.9,0.85 l -2.75,0.4 c -0.29,0.035 -0.565,0.084 -0.824,0.15 h -0.025 c -0.259,0.034 -0.517,0.084 -0.775,0.15 h -0.024 c -0.249,0.026 -0.482,0.068 -0.7,0.125 V 18.3 h -0.025 l -0.8,0.2 -0.075,-0.375 h -0.024 c -0.129,0.022 -0.254,0.047 -0.375,0.075 l 0.1,0.35 -2.654,0.65 h -0.025 c -0.583,0.126 -1.149,0.284 -1.7,0.475 h -0.024 l -2.551,0.75 -0.1,-0.325 c -0.29,0.094 -0.573,0.194 -0.85,0.3 l 0.149,0.325 -0.899,0.35 h -0.051 c -0.524,0.167 -1.032,0.351 -1.524,0.55 -4.295,1.713 -8.012,3.955 -11.15,6.725 v 0.025 c -3.154,2.725 -5.472,6.042 -6.95,9.95 -1.241,3.403 -1.666,6.478 -1.274,9.225 0.359,2.721 1.26,5.229 2.7,7.525 1.419,2.274 3.119,4.433 5.1,6.475 0.5,0.533 1.017,1.067 1.55,1.6 l 4.55,4.6 c 0.676,0.674 1.317,1.383 1.926,2.125 0.833,0.975 1.616,1.95 2.35,2.925 1.243,1.642 2.318,3.25 3.225,4.825 0.91,1.583 1.668,3.1 2.275,4.55 0.577,1.451 1.002,2.818 1.275,4.1 0.271,1.27 0.371,2.436 0.3,3.5 -0.033,0.628 -0.05,1.853 -0.05,3.675 0,0.1 0,0.2 0,0.3 0,2.033 0,4.533 0,7.5 0,2.966 -0.051,6.233 -0.15,9.8 -0.062,1.98 -0.138,4.005 -0.225,6.075 3.626,-0.257 7.192,-0.482 10.699,-0.675 3.625,-0.233 7.134,-0.55 10.525,-0.95 h 0.05 c 3.357,-0.401 6.516,-0.951 9.476,-1.65 2.905,-0.719 5.563,-1.686 7.975,-2.9 h -0.025 c 0.375,-0.208 0.75,-0.4 1.125,-0.575 v 0.025 c 2.311,-1.21 4.285,-2.151 5.926,-2.825 0.733,-0.3 1.416,-0.567 2.05,-0.8 0.852,-0.311 1.635,-0.536 2.35,-0.675 0.064,-0.026 0.14,-0.051 0.226,-0.075 V 106 c 0.617,-0.16 1.201,-0.276 1.75,-0.35 0.026,-0.015 0.052,-0.023 0.074,-0.025 0.298,-0.479 0.606,-0.979 0.926,-1.5 0.691,-1.127 1.383,-2.452 2.074,-3.975 0.7,-1.526 1.417,-3.301 2.15,-5.325 v 0.025 c 0.7,-2.067 1.417,-4.417 2.15,-7.05 0.725,-2.667 1.366,-5.05 1.925,-7.15 0.534,-2.098 1.018,-3.981 1.45,-5.65 0.401,-1.69 0.768,-3.215 1.1,-4.575 0.3,-1.425 0.55,-2.75 0.75,-3.975 0.2,-1.233 0.383,-2.467 0.55,-3.7 0.134,-1.226 0.25,-2.5 0.351,-3.825 0.066,-1.333 0.149,-2.8 0.25,-4.4 0.065,-1.585 0.133,-3.352 0.199,-5.3 L 321.25,46.3 c -0.127,-0.984 -0.352,-1.967 -0.675,-2.95 z M 325,22 l 2.6,2.55 c 1.242,1.308 2.434,2.65 3.575,4.025 3.021,3.699 5.355,7.565 7,11.6 1.651,4.007 2.427,8.099 2.325,12.275 v 0.025 c -0.299,8.252 -1.165,15.869 -2.601,22.85 -1.473,6.994 -3.514,13.336 -6.125,19.025 -2.654,5.696 -5.93,10.737 -9.825,15.125 h 0.025 c -0.367,0.424 -0.733,0.857 -1.1,1.3 0.168,0.193 0.326,0.393 0.475,0.6 l 0.85,0.9 c 0.801,0.867 1.601,1.733 2.4,2.6 v -0.025 c 1.198,1.264 2.315,2.155 3.35,2.675 l -0.149,-0.025 0.1,0.05 0.15,0.025 c 1.062,0.514 1.987,1.114 2.774,1.8 0.775,0.682 1.534,1.432 2.275,2.25 0.635,0.692 1.401,1.45 2.3,2.275 l -0.05,-0.025 0.4,0.35 0.05,0.025 c 1.02,0.95 2.337,1.967 3.95,3.05 1.716,1.113 3.516,2.596 5.399,4.45 0.101,0.1 0.2,0.2 0.3,0.3 1.775,1.708 3.534,3.566 5.275,5.575 1.8,2.1 3.5,4.133 5.1,6.1 1.267,1.567 2.384,2.95 3.351,4.15 0.233,0.275 0.45,0.55 0.649,0.825 v -0.025 c 1.121,1.318 2.654,2.818 4.601,4.5 1.992,1.633 4.184,3.35 6.575,5.15 2.399,1.8 4.816,3.55 7.25,5.25 2.366,1.7 4.533,3.284 6.5,4.75 1.908,1.4 3.783,2.867 5.625,4.4 l 2.3,2 c 0.233,0.2 0.483,0.417 0.75,0.65 v 0.024 h 0.024 l 2.25,2.2 c 1.7,1.7 3.4,3.467 5.101,5.3 v 0.025 h 0.024 l 1.25,1.4 c 1.233,1.399 2.483,2.85 3.75,4.35 0.854,1.026 1.587,2.31 2.2,3.85 0.609,1.482 1.135,3.132 1.575,4.95 l 0.3,1.4 c 0.267,1.375 0.5,2.8 0.7,4.274 0.267,1.942 0.483,3.917 0.65,5.926 0.066,0.933 0.133,1.85 0.199,2.75 l 0.351,5.649 c 0.033,0.867 0.066,1.7 0.1,2.5 0.067,1.524 0.167,2.865 0.3,4.025 v 0.024 c 0.094,1.101 0.219,1.926 0.375,2.476 v -0.025 c 0.332,0.928 0.915,1.545 1.75,1.851 H 414.3 c 0.902,0.286 1.886,0.428 2.95,0.425 h 0.55 c 0.15,-0.002 0.317,0.007 0.5,0.024 1.898,-0.843 3.557,-1.542 4.975,-2.1 h -0.024 c 1.253,-0.545 2.271,-0.92 3.05,-1.125 h 0.05 l 0.65,-0.15 c 0.792,-0.133 1.917,-0.333 3.375,-0.6 0.166,-0.033 0.333,-0.066 0.5,-0.1 1.349,-0.268 2.766,-0.468 4.25,-0.601 1.108,-0.101 2.167,-0.134 3.175,-0.1 0.441,-0.002 0.884,0.031 1.325,0.1 1.435,0.146 2.426,0.63 2.975,1.45 v 0.025 c 0.412,0.683 1.087,1.274 2.025,1.774 0.978,0.515 2.086,0.931 3.324,1.25 v 0.025 c 1.218,0.357 2.468,0.632 3.75,0.825 1.233,0.199 2.366,0.366 3.4,0.5 1.089,0.173 2.28,0.839 3.575,2 v -0.025 c 0.809,0.716 1.616,1.516 2.425,2.4 0.408,0.433 0.816,0.899 1.225,1.399 1.168,1.409 2.118,2.635 2.851,3.675 h 0.024 c 0.258,0.389 0.482,0.697 0.676,0.926 v 0.024 l 0.024,0.025 c 0.241,0.387 0.374,0.596 0.4,0.625 0.07,0.068 0.495,0.561 1.274,1.475 v 0.025 c 0.101,0.125 0.218,0.267 0.351,0.425 0.999,1.208 2.116,2.633 3.35,4.275 l -0.024,-0.051 c 0.073,0.073 0.132,0.148 0.175,0.226 v 0.024 l 0.05,0.051 c 0.325,0.415 0.633,0.831 0.925,1.25 0.701,1.051 1.285,2.034 1.75,2.949 v -0.024 c 0.383,0.722 0.591,1.305 0.625,1.75 0.022,0.256 -0.003,0.473 -0.075,0.649 0.06,0.421 -0.058,0.713 -0.35,0.875 l -1.8,0.851 c -0.3,0.166 -0.584,0.316 -0.851,0.45 -0.3,0.133 -0.583,0.25 -0.85,0.35 -0.4,0.167 -0.816,0.25 -1.25,0.25 l -0.45,-0.05 c -0.3,-0.033 -0.6,-0.117 -0.899,-0.25 -0.334,-0.167 -0.65,-0.367 -0.95,-0.601 -0.334,-0.267 -0.634,-0.466 -0.9,-0.6 -0.3,-0.134 -0.583,-0.217 -0.85,-0.25 L 465.1,255 c -0.366,-0.033 -0.7,0.033 -1,0.2 -0.467,0.233 -0.9,0.55 -1.3,0.949 -0.4,0.4 -0.767,0.867 -1.101,1.4 -0.333,0.5 -0.649,1 -0.949,1.5 -0.334,0.5 -0.634,0.95 -0.9,1.35 -0.267,0.4 -0.517,0.7 -0.75,0.9 -0.167,0.1 -0.333,0.167 -0.5,0.2 -0.1,-0.033 -0.2,-0.066 -0.3,-0.101 -0.634,-0.366 -1.2,-0.649 -1.7,-0.85 -0.533,-0.233 -1,-0.4 -1.4,-0.5 -0.3,-0.1 -0.566,-0.167 -0.8,-0.2 -0.234,-0.033 -0.45,-0.05 -0.649,-0.05 -0.2,0 -0.384,0.017 -0.551,0.05 -0.5,0.134 -0.883,0.384 -1.149,0.75 -0.256,0.285 -0.439,0.626 -0.55,1.025 l -0.2,1.274 c -0.045,0.36 -0.087,0.711 -0.125,1.051 -0.037,0.385 -0.079,0.752 -0.125,1.1 -0.101,0.467 -0.233,0.884 -0.4,1.25 -0.2,0.333 -0.483,0.533 -0.85,0.6 h -0.15 c -0.366,0 -0.8,-0.149 -1.3,-0.449 -0.3,-0.2 -0.6,-0.417 -0.9,-0.65 -0.195,-0.157 -0.396,-0.323 -0.6,-0.5 -0.284,-0.228 -0.576,-0.478 -0.875,-0.75 v 0.025 c -0.209,-0.176 -0.4,-0.351 -0.575,-0.525 -0.566,-0.533 -1.149,-1.116 -1.75,-1.75 -0.367,-0.375 -0.717,-0.75 -1.05,-1.125 v 0.025 c -0.5,-0.5 -0.983,-1.017 -1.45,-1.551 l -0.024,-0.024 c -0.892,-0.925 -1.75,-1.816 -2.575,-2.675 -0.858,-0.858 -1.7,-1.65 -2.525,-2.375 v -0.025 c -0.254,-0.213 -0.496,-0.412 -0.725,-0.6 -0.367,-0.301 -0.733,-0.551 -1.101,-0.75 -0.366,-0.233 -0.699,-0.417 -1,-0.551 -0.333,-0.133 -0.633,-0.216 -0.899,-0.25 -0.3,-0.033 -0.634,-0.05 -1,-0.05 l -10.15,1.4 -9.35,2.149 c -0.233,0.067 -0.4,0.184 -0.5,0.351 -0.072,0.09 -0.131,0.198 -0.175,0.325 l -0.025,0.324 v 0.075 c -0.053,0.262 -0.103,0.537 -0.15,0.825 -0.036,0.261 -0.069,0.511 -0.1,0.75 -0.066,0.267 -0.167,0.517 -0.3,0.75 -0.167,0.2 -0.4,0.35 -0.7,0.45 -0.2,0.066 -0.45,0.1 -0.75,0.1 h -0.45 c -0.233,-0.033 -0.5,-0.083 -0.8,-0.149 -0.054,-0.017 -0.104,-0.033 -0.15,-0.051 -0.423,0.112 -0.956,0.213 -1.6,0.301 -0.915,0.1 -1.981,0.167 -3.2,0.199 -0.215,0.002 -0.415,0.019 -0.6,0.051 h -0.05 c -1.042,0 -2.117,-0.033 -3.226,-0.101 -1.366,-0.1 -2.733,-0.217 -4.1,-0.35 H 394.9 c -1.409,-0.167 -2.717,-0.366 -3.925,-0.601 l -0.85,-0.199 H 390.1 c -0.876,-0.242 -1.651,-0.483 -2.325,-0.726 -0.797,-0.284 -1.705,-0.426 -2.725,-0.425 h -0.85 c -1.076,0.035 -2.234,0.186 -3.475,0.45 -1.45,0.293 -2.9,0.718 -4.35,1.274 -1.449,0.526 -2.833,1.151 -4.15,1.875 -1.347,0.728 -2.53,1.535 -3.55,2.426 h -0.025 l -0.725,0.625 -0.025,0.024 c -0.692,0.643 -1.26,1.301 -1.7,1.976 v -0.025 c -0.891,1.448 -1.749,3.39 -2.574,5.825 v 0.024 c -0.834,2.426 -1.717,5.084 -2.65,7.976 v 0.024 l -1,2.9 c -0.7,1.908 -1.467,3.783 -2.3,5.625 -1.247,2.762 -2.747,5.203 -4.5,7.325 h -0.025 c -0.812,0.916 -1.912,1.899 -3.3,2.95 -1.374,1.041 -2.916,2.1 -4.625,3.175 -1.733,1.066 -3.467,2.1 -5.2,3.1 -0.4,0.233 -0.783,0.45 -1.149,0.65 -1.367,0.767 -2.65,1.467 -3.851,2.1 H 335 c -1.601,0.842 -2.951,1.534 -4.051,2.075 -0.399,0.2 -0.767,0.384 -1.1,0.55 -0.511,0.235 -0.902,0.401 -1.175,0.5 -1.644,0.689 -3.419,1.756 -5.325,3.2 -1.917,1.46 -3.867,3.168 -5.85,5.125 -2,1.958 -3.967,4.017 -5.9,6.175 -1.425,1.601 -2.783,3.184 -4.075,4.75 l -1.3,1.55 c -1.699,2.024 -3.183,3.866 -4.45,5.525 -1.266,1.666 -2.249,2.982 -2.95,3.95 h 0.025 c -0.311,0.472 -0.577,1.338 -0.8,2.6 -0.033,0.241 -0.083,0.499 -0.15,0.775 l -0.149,1.274 -0.375,-0.05 c -0.011,0.052 -0.02,0.102 -0.025,0.15 -0.1,0.8 -0.2,1.684 -0.3,2.649 l 0.35,0.025 c -0.2,1.934 -0.383,4.067 -0.55,6.4 -0.1,1.533 -0.2,3.1 -0.3,4.699 v 0.025 l -0.05,0.65 c -0.034,0.625 -0.067,1.267 -0.101,1.925 -0.166,2.533 -0.35,5.066 -0.55,7.6 -0.167,1.934 -0.333,3.816 -0.5,5.65 v 0.024 c -0.066,0.5 -0.134,1.017 -0.2,1.551 -0.267,2.309 -0.583,4.417 -0.95,6.324 -0.373,1.888 -0.815,3.455 -1.324,4.7 -0.192,0.496 -0.4,1.188 -0.625,2.075 h -0.025 c -0.258,0.86 -0.5,1.852 -0.725,2.975 -0.267,1.134 -0.534,2.317 -0.801,3.551 -0.267,1.199 -0.517,2.399 -0.75,3.6 -0.196,1.175 -0.246,2.608 -0.149,4.3 0.1,1.733 0.233,3.5 0.399,5.3 0.167,1.776 0.268,3.318 0.301,4.625 0.032,1.23 -0.117,2.071 -0.45,2.525 0.377,1.021 0.769,1.995 1.175,2.925 0.8,1.8 1.583,3.483 2.35,5.05 0.759,1.558 1.483,2.916 2.176,4.075 l 0.024,0.025 0.25,0.45 -0.025,-0.017 c 0.558,0.923 1.049,1.682 1.475,2.275 v -0.025 c 1.009,1.316 1.95,2.683 2.825,4.1 0.833,1.334 1.6,2.634 2.3,3.9 0.7,1.266 1.35,2.383 1.95,3.35 V 443.5 c 0.582,0.911 1.115,1.628 1.6,2.149 l 0.025,0.025 c 0.512,0.576 0.819,1.442 0.925,2.6 v 0.025 l 0.05,0.6 c 0.001,0.875 -0.049,1.8 -0.149,2.775 v 0.025 c -0.009,0.056 -0.017,0.114 -0.025,0.175 l -0.025,0.425 c -0.066,0.566 -0.149,1.1 -0.25,1.6 l -0.5,2.65 -4.75,-0.65 c -0.566,-0.1 -1.1,-0.3 -1.6,-0.6 -0.262,-0.175 -0.512,-0.375 -0.75,-0.6 -0.391,-0.291 -0.749,-0.649 -1.075,-1.075 -0.408,-0.508 -0.8,-1.05 -1.175,-1.625 l 0.05,0.05 -0.05,-0.1 -0.05,-0.075 c -0.343,-0.575 -0.65,-1.15 -0.925,-1.726 -0.233,-0.533 -0.45,-1.017 -0.65,-1.449 l -0.9,-1.851 c -0.185,-0.369 -0.367,-0.652 -0.55,-0.85 -0.107,-0.066 -0.215,-0.101 -0.325,-0.101 -0.233,0 -0.416,0.167 -0.55,0.5 -0.166,0.301 -0.283,0.75 -0.35,1.351 l -0.3,3.55 c 0.003,0.146 0.003,0.296 0,0.45 0,0.1 0,0.217 0,0.35 v 0.125 c -0.067,1.733 -0.184,3.533 -0.351,5.4 -0.066,0.809 -0.166,1.6 -0.3,2.375 -0.032,0.188 -0.065,0.372 -0.1,0.55 l -0.051,0.65 c -0.1,0.466 -0.183,0.933 -0.25,1.399 -0.133,0.434 -0.25,0.867 -0.35,1.3 -0.267,0.801 -0.533,1.551 -0.8,2.25 -0.267,0.7 -0.55,1.317 -0.851,1.851 -0.633,1.033 -1.333,1.883 -2.1,2.55 -0.4,0.333 -0.833,0.634 -1.3,0.9 -0.467,0.266 -0.95,0.5 -1.45,0.699 -0.533,0.2 -1.083,0.4 -1.65,0.601 -0.6,0.166 -1.233,0.333 -1.899,0.5 -0.267,0.033 -0.5,0.066 -0.7,0.1 -0.333,0 -0.583,-0.066 -0.75,-0.2 -0.116,-0.081 -0.216,-0.181 -0.3,-0.3 -0.062,-0.035 -0.12,-0.076 -0.175,-0.125 -0.379,-0.282 -0.587,-0.732 -0.625,-1.35 -0.074,-0.529 -0.024,-1.163 0.149,-1.9 0.04,-0.174 0.099,-0.365 0.175,-0.575 l -0.024,0.025 c 0.107,-0.542 0.249,-1.083 0.425,-1.625 0.161,-0.591 0.353,-1.165 0.575,-1.725 0.039,-0.184 0.098,-0.367 0.175,-0.551 v 0.025 c 0.233,-0.733 0.433,-1.383 0.6,-1.95 0.124,-0.454 0.198,-0.838 0.226,-1.149 -0.132,0.058 -0.248,0.157 -0.351,0.3 -0.166,0.2 -0.3,0.517 -0.399,0.95 -0.101,0.366 -0.2,0.816 -0.3,1.35 L 278.65,468 c -0.1,0.3 -0.2,0.6 -0.3,0.899 -0.134,0.301 -0.267,0.584 -0.4,0.851 -0.166,0.3 -0.333,0.583 -0.5,0.85 -0.199,0.233 -0.399,0.483 -0.6,0.75 -0.434,0.467 -0.95,0.884 -1.55,1.25 -0.634,0.3 -1.15,0.601 -1.55,0.9 -0.4,0.3 -0.733,0.583 -1,0.85 -0.301,0.267 -0.534,0.533 -0.7,0.8 -0.167,0.233 -0.3,0.483 -0.4,0.75 l -0.65,1.55 c -0.134,0.267 -0.284,0.55 -0.45,0.85 -0.2,0.267 -0.434,0.583 -0.7,0.95 -0.2,0.2 -0.366,0.35 -0.5,0.45 -0.134,0.066 -0.25,0.116 -0.35,0.149 l -0.101,-0.05 c -0.171,-0.043 -0.305,-0.151 -0.399,-0.325 -0.33,-0.093 -0.563,-0.41 -0.7,-0.95 -0.106,-0.427 -0.14,-0.943 -0.101,-1.55 0.032,-0.615 0.115,-1.266 0.25,-1.95 0.141,-0.685 0.332,-1.318 0.575,-1.899 0.208,-0.596 0.45,-1.07 0.726,-1.425 h -0.35 c -0.333,0.033 -0.7,0.083 -1.1,0.149 l -2.95,0.65 -0.3,0.1 -0.05,-0.05 v -0.4 l -0.375,0.025 -0.075,-0.025 c -0.043,-0.018 -0.076,-0.076 -0.101,-0.175 l -0.25,0.15 0.226,-0.3 c -0.018,-0.112 -0.025,-0.255 -0.025,-0.426 v -0.55 c -0.067,-0.703 -0.101,-1.652 -0.1,-2.85 -0.033,-1.233 -0.051,-2.649 -0.05,-4.25 0.033,-1.342 0.083,-2.75 0.149,-4.226 0,-0.333 0.017,-0.666 0.05,-1 0.066,-1.017 0.199,-2.033 0.4,-3.05 0.143,-0.875 0.352,-1.75 0.625,-2.625 0.399,-1.375 0.833,-2.667 1.3,-3.875 V 449 l 0.101,-0.25 v -0.025 c 0.133,-0.366 0.267,-0.717 0.399,-1.05 0.664,-1.56 1.264,-2.81 1.8,-3.75 0.008,-0.018 0.017,-0.034 0.025,-0.05 l 0.225,-0.45 V 443.4 c 0.16,-0.335 0.285,-0.594 0.375,-0.774 l -0.399,-0.375 c -0.399,-0.399 -0.883,-0.899 -1.45,-1.5 v -0.025 h -0.025 c -0.566,-0.674 -1.133,-1.399 -1.699,-2.175 -0.319,-0.417 -0.586,-0.833 -0.801,-1.25 l -0.024,-0.075 V 437.2 c -0.222,-0.396 -0.413,-0.788 -0.575,-1.176 -0.323,-0.908 -0.356,-1.816 -0.1,-2.725 l -0.025,0.025 c 0.209,-0.876 0.593,-1.751 1.15,-2.625 v 0.024 l 0.8,-1.25 v -0.024 c 0.267,-0.4 0.55,-0.817 0.85,-1.25 0.523,-0.817 0.965,-1.634 1.325,-2.45 v 0.024 c 0.318,-0.794 0.493,-1.652 0.525,-2.574 v -0.025 c 0.027,-0.52 0.035,-1.087 0.024,-1.7 -0.418,0.222 -0.752,0.271 -1,0.15 l -0.05,-0.025 -0.025,-0.024 c -0.398,-0.237 -0.766,-1.096 -1.1,-2.575 -0.134,-0.516 -0.251,-1.083 -0.35,-1.7 l -0.95,-5.025 c -0.233,-1.274 -0.45,-2.483 -0.65,-3.625 -0.259,-1.478 -0.517,-2.611 -0.774,-3.399 l -0.101,-0.3 v 0.024 c -0.166,-0.392 -0.333,-0.767 -0.5,-1.125 -0.159,-0.35 -0.352,-0.7 -0.575,-1.05 -0.458,-0.69 -0.916,-1.315 -1.375,-1.875 -0.457,-0.523 -0.849,-0.948 -1.175,-1.275 l -0.2,-0.199 v 0.024 l -0.125,0.125 -0.024,0.05 -0.025,0.025 c -0.141,0.175 -0.299,0.35 -0.475,0.525 -0.167,0.166 -0.334,0.333 -0.5,0.5 -0.403,0.404 -0.771,0.621 -1.101,0.649 -0.29,0.039 -0.506,-0.078 -0.649,-0.35 -0.095,-0.154 -0.145,-0.396 -0.15,-0.726 v -0.024 c -0.05,-0.338 -0.3,-0.763 -0.75,-1.275 V 399 c -0.554,-0.593 -1.271,-1.218 -2.149,-1.875 -0.893,-0.658 -1.868,-1.316 -2.926,-1.976 h -0.024 c -1.092,-0.699 -2.15,-1.333 -3.175,-1.899 -1.058,-0.558 -1.999,-1.016 -2.825,-1.375 h 0.024 c -0.833,-0.352 -1.458,-0.56 -1.875,-0.625 -0.435,-0.002 -0.685,0.248 -0.75,0.75 -0.062,0.57 -0.046,1.237 0.051,2 v 0.05 l 0.05,0.25 c -0.002,0.066 0.006,0.133 0.024,0.2 l 0.025,0.024 v 0.025 c 0.159,1.015 0.351,1.915 0.575,2.7 0.198,0.652 0.332,1.061 0.399,1.225 l 0.476,1.226 -1.025,-0.825 c -0.163,-0.139 -0.746,-0.663 -1.75,-1.575 v 0.025 c -1.134,-0.968 -2.483,-2.084 -4.05,-3.351 -1.558,-1.3 -3.033,-2.466 -4.425,-3.5 -1.378,-0.986 -2.353,-1.545 -2.925,-1.675 -0.344,-0.087 -0.544,-0.12 -0.601,-0.1 -0.039,0.11 -0.015,0.252 0.075,0.425 0.159,0.291 0.334,0.565 0.525,0.825 0.159,0.206 0.259,0.331 0.3,0.375 l 0.975,1.074 -0.475,0.426 -0.976,-0.976 c -0.03,-0.017 -0.28,-0.142 -0.75,-0.375 -0.553,-0.267 -1.27,-0.55 -2.149,-0.85 -0.885,-0.291 -1.835,-0.516 -2.851,-0.675 h -0.024 c -1.024,-0.194 -2.016,-0.228 -2.976,-0.101 -0.794,0.136 -1.27,0.36 -1.425,0.675 -0.119,0.34 -0.061,0.707 0.175,1.101 0.253,0.438 0.554,0.83 0.9,1.175 0.333,0.333 0.517,0.517 0.55,0.55 l 0.976,0.976 -0.025,0.024 0.025,0.025 -0.476,0.45 -1,-0.976 c -0.035,-0.026 -0.326,-0.193 -0.875,-0.5 -0.593,-0.325 -1.351,-0.717 -2.274,-1.175 v -0.025 h -0.025 c -0.917,-0.49 -1.884,-0.933 -2.9,-1.324 -0.509,-0.191 -0.976,-0.366 -1.399,-0.525 -0.089,-0.008 -0.164,-0.032 -0.226,-0.075 -0.413,-0.089 -0.797,-0.181 -1.149,-0.274 -0.639,-0.128 -1.088,-0.011 -1.351,0.35 h -0.024 c -0.291,0.421 -0.449,0.946 -0.476,1.575 -0.062,0.639 -0.045,1.23 0.051,1.774 0.051,0.435 0.067,0.668 0.05,0.7 l -0.226,0.65 -0.175,-0.075 c -0.07,-0.035 -0.653,-0.302 -1.75,-0.8 -1.125,-0.5 -2.467,-1.067 -4.024,-1.7 -1.566,-0.666 -3.066,-1.25 -4.5,-1.75 -1.094,-0.386 -1.96,-0.61 -2.601,-0.675 h -0.024 l -0.551,-0.05 c -0.508,0.037 -0.883,0.204 -1.125,0.5 h 0.025 c -0.271,0.39 -0.438,0.84 -0.5,1.35 -0.096,0.538 -0.129,1.013 -0.1,1.425 0.021,0.261 0.021,0.402 0,0.425 l -0.25,0.601 c -0.033,10e-4 -0.241,-0.016 -0.625,-0.05 -0.38,-0.032 -0.863,-0.115 -1.45,-0.25 l -0.851,-0.2 -0.024,-0.025 c -0.309,-0.1 -0.633,-0.216 -0.975,-0.35 -0.676,-0.232 -1.317,-0.5 -1.925,-0.8 l -0.025,-0.025 c -0.571,-0.344 -1.396,-0.61 -2.475,-0.8 h -0.025 c -1.146,-0.231 -2.587,-0.365 -4.325,-0.4 v -0.25 l -0.025,0.25 c -1.719,-0.065 -3.735,0.001 -6.05,0.2 -2.359,0.2 -4.984,0.551 -7.875,1.05 -1.959,0.334 -4.384,0.801 -7.275,1.4 -2.9,0.6 -6.017,1.283 -9.35,2.05 -3.367,0.767 -6.733,1.566 -10.1,2.4 -1.577,0.38 -3.094,0.764 -4.55,1.149 -0.086,0.804 -0.145,1.637 -0.175,2.5 v 0.025 c -0.033,0.699 -0.083,1.416 -0.15,2.149 v 0.051 c -0.066,0.351 -0.116,0.717 -0.15,1.1 v 0.025 c -0.1,0.708 -0.217,1.433 -0.35,2.175 -0.133,0.666 -0.267,1.316 -0.4,1.95 l -0.025,0.024 c -0.022,0.079 -0.047,0.154 -0.075,0.226 l -0.2,1.125 c -0.133,0.433 -0.284,0.883 -0.45,1.35 -0.167,0.434 -0.333,0.866 -0.5,1.3 l -1.825,3.675 c -0.08,0.199 -0.163,0.391 -0.25,0.575 -0.228,0.462 -0.453,0.903 -0.675,1.325 l -3.15,6.375 h -0.05 l -0.45,-0.375 -0.05,0.025 c -0.025,-0.025 -0.158,-0.15 -0.4,-0.375 l -1.7,-1.375 c -0.333,-0.233 -0.633,-0.434 -0.9,-0.601 -0.3,-0.166 -0.55,-0.267 -0.75,-0.3 l -0.2,-0.05 c -0.074,0 -0.141,0.017 -0.2,0.05 0.103,0.452 0.136,0.985 0.1,1.6 v 0.325 c -0.047,0.252 -0.097,0.511 -0.15,0.775 -0.018,0.144 -0.035,0.294 -0.05,0.45 -0.066,0.3 -0.15,0.616 -0.25,0.949 l -0.25,0.95 c -0.133,0.267 -0.25,0.55 -0.35,0.851 -0.267,0.533 -0.517,0.966 -0.75,1.3 -0.233,0.267 -0.45,0.399 -0.65,0.399 h -0.1 c -0.133,-0.033 -0.25,-0.133 -0.35,-0.3 l -0.025,-0.024 c -0.324,-0.069 -0.591,-0.444 -0.8,-1.125 H 119.6 v -0.025 c -0.206,-0.904 -0.272,-1.654 -0.2,-2.25 0.034,-0.566 0.067,-1.116 0.1,-1.65 0.031,-0.497 -0.061,-1.072 -0.275,-1.725 v 0.025 c -0.265,-0.713 -0.757,-1.604 -1.475,-2.676 -0.804,-1.229 -1.204,-2.529 -1.2,-3.899 -0.002,-0.784 0.064,-1.534 0.2,-2.25 0.064,-0.509 0.165,-1.018 0.3,-1.525 0.033,-0.133 0.066,-0.267 0.1,-0.399 l 0.1,-0.4 c 0.2,-0.842 0.383,-1.584 0.55,-2.225 0.079,-0.401 0.087,-0.709 0.025,-0.926 -0.104,0.03 -0.195,0.139 -0.275,0.325 -0.167,0.3 -0.3,0.767 -0.4,1.4 l -0.175,1 c -0.007,0.086 -0.016,0.178 -0.025,0.274 v 0.051 l -0.025,0.074 c -0.012,0.018 -0.02,0.034 -0.025,0.051 v 0.074 c -0.133,0.726 -0.25,1.484 -0.35,2.275 -0.133,0.775 -0.283,1.517 -0.45,2.225 l -0.1,0.525 c -0.1,0.333 -0.2,0.65 -0.3,0.95 -0.1,0.267 -0.217,0.517 -0.35,0.75 -0.267,0.434 -0.583,0.684 -0.95,0.75 l -0.2,0.05 c -0.333,-0.033 -0.733,-0.233 -1.2,-0.6 -0.137,-0.091 -0.278,-0.199 -0.425,-0.325 -1.077,-0.917 -1.986,-1.784 -2.725,-2.601 -0.799,-0.856 -1.407,-1.765 -1.825,-2.725 -0.415,-0.97 -0.657,-2.095 -0.725,-3.375 -0.095,-1.046 -0.037,-2.246 0.175,-3.6 -0.057,0.006 -0.116,0.015 -0.175,0.024 h -0.025 c -1.933,0.2 -3.917,0.4 -5.95,0.601 -2.033,0.199 -4.033,0.383 -6,0.55 -1.967,0.166 -3.8,0.333 -5.5,0.5 -1.167,0.1 -2.217,0.184 -3.15,0.25 l -0.95,0.1 H 85.7 c -0.083,0 -0.183,0 -0.3,0 -1.243,0.101 -2.176,0.201 -2.8,0.3 -1.474,0.162 -2.865,0.487 -4.175,0.976 -1.316,0.492 -2.6,1.084 -3.85,1.774 -1.258,0.7 -2.5,1.45 -3.725,2.25 h -0.025 c -0.625,0.393 -1.267,0.817 -1.925,1.275 v 0.025 h -0.025 l -1.95,1.199 c -1.375,0.834 -2.8,1.634 -4.275,2.4 -1.474,0.776 -3.065,1.468 -4.775,2.075 -1.316,0.476 -2.699,0.884 -4.15,1.225 H 53.7 l -3.7,0.55 h -0.025 c -1.408,0.134 -2.883,0.201 -4.425,0.2 -2.901,-0.063 -5.701,-0.463 -8.4,-1.2 v -0.024 c -2.718,-0.766 -5.218,-1.666 -7.5,-2.7 -0.183,-0.099 -0.367,-0.183 -0.55,-0.25 h -0.05 c -2.009,-1.009 -3.751,-1.934 -5.225,-2.775 -1.601,-0.967 -2.75,-1.667 -3.45,-2.1 H 20.35 c -0.621,-0.403 -1.18,-0.653 -1.675,-0.75 -0.257,-0.034 -0.499,-0.067 -0.725,-0.1 L 18,411.35 c -0.122,-0.015 -0.239,-0.023 -0.35,-0.024 l -0.075,0.375 -0.325,-0.051 h -0.025 c -0.508,-0.032 -1.033,-0.083 -1.575,-0.149 -0.598,-0.067 -1.231,-0.26 -1.9,-0.575 -0.474,-0.24 -1.016,-0.549 -1.625,-0.925 -0.6,-0.367 -1.25,-0.767 -1.95,-1.2 C 9.467,408.36 8.758,407.885 8.05,407.376 V 407.4 L 7.8,407.25 v -0.025 C 7.342,406.901 6.9,406.609 6.475,406.35 L 6.45,406.326 H 6.425 C 6.266,406.201 6.091,406.076 5.9,405.951 v -0.025 c -0.675,-0.5 -1.316,-0.983 -1.925,-1.45 -0.434,-0.342 -0.817,-0.667 -1.15,-0.975 H 2.8 C 2.683,403.377 2.567,403.269 2.45,403.176 H 2.425 L 2.4,403.149 c -0.521,-0.487 -0.955,-1.046 -1.3,-1.675 -0.391,-0.631 -0.657,-1.298 -0.8,-2 l 0.025,0.025 c -0.214,-0.667 -0.322,-1.334 -0.325,-2 0,-0.033 0,-0.084 0,-0.15 -0.002,-0.725 0.064,-1.45 0.2,-2.175 0.172,-0.727 0.414,-1.402 0.725,-2.025 0.566,-1.224 1.033,-2.282 1.4,-3.175 0.333,-0.891 0.616,-1.683 0.85,-2.375 0.225,-0.732 0.416,-1.416 0.575,-2.05 0.136,-0.626 0.286,-1.301 0.45,-2.025 0.167,-0.759 0.316,-1.634 0.45,-2.625 0.068,-0.642 0.168,-1.333 0.3,-2.074 l 0.2,-1.325 v -0.025 c 0.241,-1.273 0.583,-2.666 1.025,-4.175 H 6.15 c 0.407,-1.549 0.998,-3.216 1.775,-5 v 0.025 c 0.099,-0.275 0.216,-0.551 0.35,-0.825 0.609,-1.411 1.167,-2.553 1.675,-3.425 0.267,-0.51 0.533,-0.968 0.8,-1.375 0.309,-0.468 0.601,-0.885 0.875,-1.25 0.467,-0.667 0.934,-1.317 1.4,-1.95 H 13 c 0.424,-0.646 0.833,-1.438 1.225,-2.375 V 357.1 c 0.3,-0.666 0.65,-1.433 1.05,-2.3 v 0.025 c 0.366,-0.908 0.799,-1.866 1.3,-2.875 0.475,-1.042 0.983,-2.067 1.525,-3.075 l -0.025,0.024 c 0.508,-1.075 1.049,-2.101 1.625,-3.074 0.208,-0.386 0.433,-0.735 0.675,-1.051 0.259,-0.456 0.518,-0.881 0.775,-1.274 l 0.2,-0.351 c 0.55,-0.819 1.1,-1.519 1.65,-2.1 v 0.025 c 0.724,-0.793 1.399,-1.635 2.025,-2.525 H 25 c 0.467,-0.692 0.967,-1.467 1.5,-2.325 l -0.025,0.025 0.45,-0.8 c 0.033,-0.067 0.066,-0.134 0.1,-0.2 l 0.025,-0.025 c 0.733,-1.292 1.583,-2.867 2.55,-4.725 v -0.025 c 0.177,-0.334 0.352,-0.675 0.525,-1.024 v -0.025 c -0.176,-0.685 -0.317,-1.317 -0.425,-1.9 l 0.025,0.025 c -0.188,-0.803 -0.247,-1.478 -0.175,-2.025 0.041,-0.691 0.166,-1.366 0.375,-2.024 0.175,-0.692 0.417,-1.351 0.725,-1.976 v 0.025 c 0.279,-0.67 0.629,-1.286 1.05,-1.85 0.133,-0.167 0.267,-0.334 0.4,-0.5 l 0.05,-0.051 c 0.083,-0.082 0.166,-0.166 0.25,-0.25 -0.249,-0.188 -0.465,-0.389 -0.65,-0.6 -0.267,-0.267 -0.483,-0.5 -0.65,-0.7 l -0.4,-0.55 -0.1,-0.25 v -0.05 l 2.95,1.6 c 0.073,0.027 0.148,0.053 0.225,0.075 l -0.3,-0.35 c 0.243,-0.208 0.526,-0.374 0.85,-0.5 l 0.75,-0.301 c 0.1,-0.04 0.2,-0.074 0.3,-0.1 -0.218,-0.237 -0.476,-0.445 -0.775,-0.625 -0.367,-0.2 -0.767,-0.45 -1.2,-0.75 l -2.6,-1.85 v -0.051 l 0.5,0.103 1.15,0.35 c 0.467,0.134 0.95,0.316 1.45,0.55 0.5,0.234 0.967,0.483 1.4,0.75 0.433,0.301 0.816,0.617 1.15,0.95 0.09,0.082 0.182,0.165 0.275,0.25 l 0.05,-0.149 H 36.8 v -0.025 c 0.334,-0.609 0.617,-1.102 0.85,-1.475 l 0.275,0.175 c 0.018,-0.027 0.034,-0.053 0.05,-0.075 l -0.025,-0.5 c -0.033,-0.267 -0.15,-0.634 -0.35,-1.1 -0.2,-0.467 -0.417,-0.95 -0.65,-1.45 l -0.9,-1.851 v -0.05 l 0.6,0.75 c 0.333,0.467 0.717,1.05 1.15,1.75 0.233,0.367 0.45,0.733 0.65,1.101 0.015,0.024 0.032,0.05 0.05,0.074 0.071,-0.085 0.154,-0.16 0.25,-0.225 0.229,-0.218 0.471,-0.41 0.725,-0.575 0.34,-0.266 0.798,-0.599 1.375,-1 l 0.85,-0.6 h -0.025 c 0.951,-0.756 1.967,-1.806 3.05,-3.15 v 0.025 c 1.058,-1.393 2.083,-2.884 3.075,-4.476 V 304 c 1.033,-1.601 1.966,-3.05 2.8,-4.351 v 0.025 c 0.81,-1.355 1.485,-2.355 2.025,-3 0.201,-0.227 0.417,-0.502 0.65,-0.825 H 53.25 c 0.135,-0.199 0.285,-0.399 0.45,-0.6 0.3,-0.434 0.633,-0.934 1,-1.5 0.3,-0.467 0.616,-0.95 0.95,-1.45 l 1,-1.5 v 0.025 c 0.267,-0.476 0.55,-0.95 0.85,-1.426 v 0.025 c 1,-1.608 1.95,-3.084 2.85,-4.425 0.442,-0.677 0.867,-1.269 1.275,-1.775 H 61.65 V 283.2 c 0.034,-0.034 0.067,-0.067 0.1,-0.101 l -0.025,0.05 c 0.351,-0.488 0.684,-0.872 1,-1.149 l -0.05,0.024 c 0.393,-0.454 0.701,-1.07 0.925,-1.85 l -0.65,0.275 H 62.9 l 1.2,-0.95 c 0.013,-0.065 0.03,-0.132 0.05,-0.2 l -0.35,-0.05 c 0.232,-1.394 0.382,-2.985 0.45,-4.775 0.033,-0.666 0.067,-1.333 0.1,-2 0.034,-1.158 0.067,-2.351 0.1,-3.575 0.032,-1.95 0.182,-3.784 0.45,-5.5 0.1,-0.7 0.2,-1.45 0.3,-2.25 0.066,-0.558 0.133,-1.149 0.2,-1.774 v -0.025 c 0.167,-1.525 0.283,-3.167 0.35,-4.925 l 0.3,0.025 0.175,-2.125 -0.175,-5.926 0.15,-1.85 0.925,-3.8 0.1,-1.275 -0.275,-0.174 c 0.09,-0.129 0.14,-0.245 0.15,-0.35 v -0.025 c 0.066,-1.457 0.1,-2.683 0.1,-3.675 l 0.05,-0.8 v -0.025 c 0.065,-0.849 0.215,-1.798 0.45,-2.85 0.307,-1.408 0.732,-2.916 1.275,-4.525 0.433,-1.342 0.9,-2.667 1.4,-3.975 v 0.024 l 0.35,-0.95 v -0.024 c 0.6,-1.509 1.216,-2.967 1.85,-4.375 l 0.3,0.149 0.675,-2.149 c 0.2,-0.601 0.417,-1.167 0.65,-1.7 0.2,-0.566 0.45,-1.1 0.75,-1.6 0.417,-0.835 0.951,-1.552 1.6,-2.15 l 0.025,-0.025 c 0.029,-0.049 0.062,-0.099 0.1,-0.149 l -0.25,-0.175 1.25,-1.65 v -0.025 l 0.025,-0.024 c 0.473,-0.509 1.031,-1.017 1.675,-1.525 1.322,-1.076 2.896,-2.084 4.725,-3.024 h -0.025 c 1.815,-0.976 3.799,-1.884 5.95,-2.726 1.608,-0.633 3.283,-1.233 5.025,-1.8 h -0.025 l 1.75,-0.6 H 96.8 c 2.421,-0.726 4.98,-0.768 7.675,-0.125 2.401,0.544 4.718,1.461 6.95,2.75 h 0.025 l 0.65,0.399 h -0.025 c 2.396,1.489 4.421,3.147 6.075,4.976 1.653,1.817 2.687,3.567 3.1,5.25 0.308,1.64 0.308,3.332 0,5.074 v 0.025 c -0.033,0.159 -0.066,0.334 -0.1,0.525 v 0.024 c -0.341,1.509 -0.75,3 -1.225,4.476 v 0.024 c -0.267,0.725 -0.517,1.434 -0.75,2.125 v 0.025 c -0.267,0.725 -0.5,1.433 -0.7,2.125 v 0.024 c -0.438,1.225 -0.629,2.199 -0.575,2.926 v 0.024 c 0.031,0.222 0.098,0.38 0.2,0.476 0.13,0.061 0.306,0.061 0.525,0 l -0.025,0.024 c 0.277,-0.095 0.585,-0.236 0.925,-0.425 H 119.5 c 0.367,-0.233 0.75,-0.483 1.15,-0.75 v 0.025 c 0.791,-0.592 1.482,-1.15 2.075,-1.676 H 122.7 c 0.598,-0.564 0.915,-0.864 0.95,-0.899 l 0.025,0.05 c 0.063,-0.116 0.138,-0.167 0.225,-0.15 l 0.8,0.051 -0.55,0.55 -0.15,0.125 c 0.103,0.088 0.136,0.321 0.1,0.7 v 0.024 c -0.1,0.66 -0.183,1.485 -0.25,2.476 0,0.176 -0.017,0.401 -0.05,0.675 -0.033,0.675 -0.033,1.35 0,2.024 0.028,0.802 0.153,1.418 0.375,1.851 0.169,0.145 0.61,-0.014 1.325,-0.476 0.917,-0.619 1.917,-1.436 3,-2.449 1.1,-1.033 2.066,-1.967 2.9,-2.801 0.312,-0.312 0.562,-0.562 0.75,-0.75 l 0.05,-0.05 v -0.05 l 0.1,-0.1 c 0.1,-0.101 0.183,-0.184 0.25,-0.25 l 0.5,0.5 c -0.049,0.049 -0.108,0.107 -0.175,0.175 -0.024,0.074 -0.066,0.132 -0.125,0.175 -0.014,0.014 -0.03,0.03 -0.05,0.05 -0.034,0.033 -0.067,0.066 -0.1,0.101 l -0.025,0.024 c -0.198,0.209 -0.415,0.468 -0.65,0.775 v 0.024 c -0.325,0.418 -0.65,0.885 -0.975,1.4 v 0.025 c -0.31,0.459 -0.526,0.935 -0.65,1.425 v 0.024 l -0.025,0.051 -0.1,0.35 0.025,-0.025 c -0.057,0.312 -0.057,0.596 0,0.851 0.087,0.322 0.337,0.572 0.75,0.75 0.214,0.09 0.489,0.164 0.825,0.225 0.325,0.035 0.725,0.068 1.2,0.101 h 0.125 c 1.014,-0.004 2.373,-0.188 4.075,-0.551 3.367,-0.733 6.2,-1.35 8.5,-1.85 2.29,-0.492 4.265,-0.983 5.925,-1.475 1.649,-0.502 3.199,-1.102 4.65,-1.801 1.451,-0.727 3.051,-1.668 4.8,-2.824 0.946,-0.644 1.763,-1.335 2.45,-2.075 l 0.025,0.024 c 0.305,-0.415 0.597,-0.832 0.875,-1.25 0.3,-0.533 0.583,-1.066 0.85,-1.6 0.233,-0.533 0.467,-1.1 0.7,-1.7 0.2,-0.6 0.4,-1.2 0.6,-1.8 l 1.2,-3.9 c 0.2,-0.666 0.434,-1.366 0.7,-2.1 0.233,-0.7 0.5,-1.417 0.8,-2.15 l 0.3,-0.85 1.525,-6.85 H 171 c 0.4,-2.309 0.9,-4.9 1.5,-7.775 0.667,-3.308 1.5,-6.85 2.5,-10.625 1.008,-3.808 2.216,-7.717 3.625,-11.725 1.399,-4.042 3.083,-8.083 5.05,-12.125 1.94,-4.084 4.199,-8.034 6.774,-11.85 2.549,-3.818 5.481,-7.384 8.801,-10.7 1.008,-1.042 2.065,-2.05 3.175,-3.025 l 0.225,0.25 c 1.688,-1.491 3.479,-2.899 5.375,-4.225 0.84,-0.582 1.698,-1.148 2.575,-1.7 0.282,-0.174 0.565,-0.35 0.85,-0.525 0.272,-0.161 0.548,-0.319 0.825,-0.475 l 0.025,-0.025 -0.075,-0.325 c 0.108,-0.028 0.217,-0.07 0.325,-0.125 l -0.025,0.025 c 2.616,-1.477 5.333,-2.718 8.15,-3.725 3.583,-1.31 7.266,-2.352 11.05,-3.125 1.908,-0.4 3.816,-0.75 5.725,-1.05 1.626,-0.254 3.268,-0.462 4.926,-0.625 0.03,-0.375 0.071,-0.75 0.125,-1.125 l 0.199,-1.7 c 0.2,-1.717 0.316,-3.484 0.351,-5.3 0.033,-1.558 0.017,-3.133 -0.05,-4.725 l -0.65,-6.475 0.35,-0.05 v -0.025 c -0.015,-0.125 -0.031,-0.25 -0.05,-0.375 -0.018,-0.1 -0.034,-0.2 -0.05,-0.3 l -0.35,0.05 c -0.201,-1.258 -0.451,-2.5 -0.75,-3.725 -0.66,-2.641 -1.552,-5.25 -2.676,-7.825 l 0.025,0.025 c -0.33,-0.62 -0.854,-1.386 -1.575,-2.3 l -1.7,-2.05 h 0.025 c -1,-1.125 -2.117,-2.35 -3.35,-3.675 v -0.025 c -1.667,-1.833 -3.467,-3.833 -5.4,-6 -1.941,-2.167 -3.867,-4.45 -5.775,-6.85 -1.075,-1.342 -2.1,-2.717 -3.074,-4.125 l -2.25,-3.35 c -0.062,-0.081 -0.111,-0.172 -0.15,-0.275 l -3.05,-5.65 V 52.35 h -0.025 c -0.3,-0.642 -0.583,-1.283 -0.85,-1.925 -0.4,-0.975 -0.751,-1.934 -1.05,-2.875 H 210.6 v -0.025 l -0.95,-4.7 0.025,0.025 C 209.624,42.71 209.6,42.593 209.6,42.5 v -3.825 c 0.139,-1.292 0.414,-2.567 0.825,-3.825 1.711,-5.113 4.028,-9.572 6.95,-13.375 V 21.5 c 2.921,-3.83 6.296,-7.088 10.125,-9.775 3.823,-2.72 7.931,-4.92 12.324,-6.6 4.425,-1.711 8.983,-2.969 13.676,-3.775 4.649,-0.834 9.3,-1.285 13.949,-1.35 0.634,0 1.25,0 1.851,0 l 4.075,0.05 c 2.541,0.1 5.05,0.3 7.524,0.6 3.649,0.439 7.416,1.248 11.3,2.425 l 2.15,0.7 h 0.025 c 4.616,1.606 9.166,3.648 13.649,6.125 4.484,2.44 8.718,5.249 12.7,8.425 1.478,1.175 2.902,2.4 4.277,3.675 z m -292.2,297.175 -0.05,-0.025 0.05,0.051 v -0.026 z"
   id="path3"
   style="fill-rule:evenodd" />
</svg>